STARTFONT 2.1
COMMENT 
COMMENT Converted from TrueType font "LiberationSerif-BoldItalic.ttf" by "ttf2bdf 2.9".
COMMENT 
FONT -FreeType-Liberation Serif-Bold-I-Normal--15-110-100-100-P-82-ISO10646-1
SIZE 11 100 100
FONTBOUNDINGBOX 19 20 -3 -5
STARTPROPERTIES 20
FOUNDRY "FreeType"
FAMILY_NAME "Liberation Serif"
WEIGHT_NAME "Bold"
SLANT "I"
SETWIDTH_NAME "Normal"
ADD_STYLE_NAME ""
PIXEL_SIZE 15
POINT_SIZE 110
RESOLUTION_X 100
RESOLUTION_Y 100
SPACING "P"
AVERAGE_WIDTH 82
CHARSET_REGISTRY "ISO10646"
CHARSET_ENCODING "1"
FONT_ASCENT 13
FONT_DESCENT 3
COPYRIGHT "Digitized data © 2007 Ascender Corporation. All rights reserved."
_TTF_FONTFILE "LiberationSerif-BoldItalic.ttf"
_TTF_PSNAME "LiberationSerif-BoldItalic"
_GBDFED_INFO "Edited with gbdfed 1.3."
ENDPROPERTIES
CHARS 655
STARTCHAR 0020
ENCODING 32
SWIDTH 196 0
DWIDTH 3 0
BBX 0 0 0 0
BITMAP
ENDCHAR
STARTCHAR 0021
ENCODING 33
SWIDTH 327 0
DWIDTH 5 0
BBX 4 10 0 0
BITMAP
30
30
20
20
20
40
40
00
C0
C0
ENDCHAR
STARTCHAR 0022
ENCODING 34
SWIDTH 523 0
DWIDTH 8 0
BBX 5 4 0 6
BITMAP
D8
D8
90
90
ENDCHAR
STARTCHAR 0023
ENCODING 35
SWIDTH 392 0
DWIDTH 6 0
BBX 6 10 0 0
BITMAP
10
10
24
7C
24
48
FC
48
90
90
ENDCHAR
STARTCHAR 0024
ENCODING 36
SWIDTH 523 0
DWIDTH 8 0
BBX 8 12 0 -1
BITMAP
04
3F
65
65
78
3E
0F
0B
93
96
FC
10
ENDCHAR
STARTCHAR 0025
ENCODING 37
SWIDTH 720 0
DWIDTH 11 0
BBX 10 10 0 0
BITMAP
30C0
4880
8900
9200
6400
0980
1240
2440
4480
C300
ENDCHAR
STARTCHAR 0026
ENCODING 38
SWIDTH 785 0
DWIDTH 12 0
BBX 11 10 0 0
BITMAP
1E00
3300
3300
3600
39E0
6CC0
C680
C700
C300
7DC0
ENDCHAR
STARTCHAR 0027
ENCODING 39
SWIDTH 261 0
DWIDTH 4 0
BBX 2 4 0 6
BITMAP
C0
C0
80
80
ENDCHAR
STARTCHAR 0028
ENCODING 40
SWIDTH 327 0
DWIDTH 5 0
BBX 5 13 0 -3
BITMAP
08
10
30
60
60
C0
C0
C0
C0
C0
C0
60
20
ENDCHAR
STARTCHAR 0029
ENCODING 41
SWIDTH 327 0
DWIDTH 5 0
BBX 5 13 -1 -3
BITMAP
20
30
18
18
18
18
18
18
30
30
60
40
80
ENDCHAR
STARTCHAR 002A
ENCODING 42
SWIDTH 523 0
DWIDTH 8 0
BBX 6 6 0 4
BITMAP
10
D4
38
70
AC
20
ENDCHAR
STARTCHAR 002B
ENCODING 43
SWIDTH 589 0
DWIDTH 9 0
BBX 7 7 0 2
BITMAP
10
10
10
FE
10
10
10
ENDCHAR
STARTCHAR 002C
ENCODING 44
SWIDTH 261 0
DWIDTH 4 0
BBX 3 5 -1 -3
BITMAP
60
60
20
40
80
ENDCHAR
STARTCHAR 002D
ENCODING 45
SWIDTH 327 0
DWIDTH 5 0
BBX 4 1 0 4
BITMAP
F0
ENDCHAR
STARTCHAR 002E
ENCODING 46
SWIDTH 261 0
DWIDTH 4 0
BBX 2 2 0 0
BITMAP
C0
C0
ENDCHAR
STARTCHAR 002F
ENCODING 47
SWIDTH 261 0
DWIDTH 4 0
BBX 6 10 -1 0
BITMAP
04
08
08
10
10
20
20
40
40
80
ENDCHAR
STARTCHAR 0030
ENCODING 48
SWIDTH 523 0
DWIDTH 8 0
BBX 7 10 0 0
BITMAP
1C
36
66
66
C6
C6
CC
CC
D8
70
ENDCHAR
STARTCHAR 0031
ENCODING 49
SWIDTH 523 0
DWIDTH 8 0
BBX 6 10 0 0
BITMAP
18
78
18
18
18
18
30
30
30
FC
ENDCHAR
STARTCHAR 0032
ENCODING 50
SWIDTH 523 0
DWIDTH 8 0
BBX 7 10 0 0
BITMAP
3C
26
26
06
0C
0C
18
30
40
FC
ENDCHAR
STARTCHAR 0033
ENCODING 51
SWIDTH 523 0
DWIDTH 8 0
BBX 7 10 0 0
BITMAP
7C
46
46
0C
30
0C
0C
8C
8C
F8
ENDCHAR
STARTCHAR 0034
ENCODING 52
SWIDTH 523 0
DWIDTH 8 0
BBX 8 10 0 0
BITMAP
03
07
0B
16
16
26
46
FF
0C
0C
ENDCHAR
STARTCHAR 0035
ENCODING 53
SWIDTH 523 0
DWIDTH 8 0
BBX 7 10 0 0
BITMAP
3E
40
40
40
78
0C
0C
8C
8C
F8
ENDCHAR
STARTCHAR 0036
ENCODING 54
SWIDTH 523 0
DWIDTH 8 0
BBX 7 10 0 0
BITMAP
1E
32
62
60
F8
CC
CC
CC
CC
78
ENDCHAR
STARTCHAR 0037
ENCODING 55
SWIDTH 523 0
DWIDTH 8 0
BBX 8 10 0 0
BITMAP
7F
42
46
04
08
18
30
30
60
C0
ENDCHAR
STARTCHAR 0038
ENCODING 56
SWIDTH 523 0
DWIDTH 8 0
BBX 7 10 0 0
BITMAP
3C
66
66
64
38
4C
CC
CC
CC
78
ENDCHAR
STARTCHAR 0039
ENCODING 57
SWIDTH 523 0
DWIDTH 8 0
BBX 7 10 0 0
BITMAP
3C
66
66
66
66
3E
0C
8C
98
F0
ENDCHAR
STARTCHAR 003A
ENCODING 58
SWIDTH 327 0
DWIDTH 5 0
BBX 3 7 0 0
BITMAP
60
60
00
00
00
C0
C0
ENDCHAR
STARTCHAR 003B
ENCODING 59
SWIDTH 327 0
DWIDTH 5 0
BBX 4 10 -1 -3
BITMAP
30
30
00
00
00
60
60
20
40
80
ENDCHAR
STARTCHAR 003C
ENCODING 60
SWIDTH 589 0
DWIDTH 9 0
BBX 7 7 0 2
BITMAP
02
0C
70
80
70
0C
02
ENDCHAR
STARTCHAR 003D
ENCODING 61
SWIDTH 589 0
DWIDTH 9 0
BBX 7 4 0 3
BITMAP
FE
00
00
FE
ENDCHAR
STARTCHAR 003E
ENCODING 62
SWIDTH 589 0
DWIDTH 9 0
BBX 7 7 0 2
BITMAP
80
60
1C
02
1C
60
80
ENDCHAR
STARTCHAR 003F
ENCODING 63
SWIDTH 523 0
DWIDTH 8 0
BBX 6 10 0 0
BITMAP
F8
8C
0C
0C
18
70
40
00
C0
C0
ENDCHAR
STARTCHAR 0040
ENCODING 64
SWIDTH 785 0
DWIDTH 12 0
BBX 11 13 0 -3
BITMAP
0F80
1840
2020
47A0
59A0
99A0
B320
B320
B340
9F80
4000
2040
1F80
ENDCHAR
STARTCHAR 0041
ENCODING 65
SWIDTH 654 0
DWIDTH 10 0
BBX 11 10 -1 0
BITMAP
0300
0300
0580
0980
0980
1180
1F80
20C0
40C0
E1E0
ENDCHAR
STARTCHAR 0042
ENCODING 66
SWIDTH 589 0
DWIDTH 9 0
BBX 8 10 0 -1
BITMAP
7F
31
31
31
3E
31
61
61
63
FE
ENDCHAR
STARTCHAR 0043
ENCODING 67
SWIDTH 654 0
DWIDTH 10 0
BBX 9 10 0 0
BITMAP
1F80
3080
6080
C000
C000
C000
C000
C100
6100
3E00
ENDCHAR
STARTCHAR 0044
ENCODING 68
SWIDTH 654 0
DWIDTH 10 0
BBX 9 10 0 -1
BITMAP
7F00
3180
3080
3080
3080
3080
6080
6180
6300
FE00
ENDCHAR
STARTCHAR 0045
ENCODING 69
SWIDTH 589 0
DWIDTH 9 0
BBX 8 10 0 0
BITMAP
7F
30
30
32
3E
32
60
61
61
FF
ENDCHAR
STARTCHAR 0046
ENCODING 70
SWIDTH 589 0
DWIDTH 9 0
BBX 9 10 0 0
BITMAP
7F80
3000
3000
3100
3F00
3100
6000
6000
6000
F000
ENDCHAR
STARTCHAR 0047
ENCODING 71
SWIDTH 720 0
DWIDTH 11 0
BBX 9 10 0 0
BITMAP
1F80
3080
6080
C000
C000
C780
C300
C300
6300
3E00
ENDCHAR
STARTCHAR 0048
ENCODING 72
SWIDTH 720 0
DWIDTH 11 0
BBX 11 10 0 0
BITMAP
79E0
30C0
30C0
30C0
3FC0
30C0
6180
6180
6180
F3C0
ENDCHAR
STARTCHAR 0049
ENCODING 73
SWIDTH 327 0
DWIDTH 5 0
BBX 4 10 0 0
BITMAP
70
30
30
30
30
30
60
60
60
F0
ENDCHAR
STARTCHAR 004A
ENCODING 74
SWIDTH 523 0
DWIDTH 8 0
BBX 7 10 -1 0
BITMAP
1E
0C
0C
0C
0C
0C
18
18
98
F0
ENDCHAR
STARTCHAR 004B
ENCODING 75
SWIDTH 589 0
DWIDTH 9 0
BBX 9 10 0 0
BITMAP
7980
3100
3200
3400
3C00
3600
6600
6600
6300
F380
ENDCHAR
STARTCHAR 004C
ENCODING 76
SWIDTH 523 0
DWIDTH 8 0
BBX 7 10 0 0
BITMAP
78
30
30
30
30
30
60
60
60
FE
ENDCHAR
STARTCHAR 004D
ENCODING 77
SWIDTH 785 0
DWIDTH 12 0
BBX 11 10 0 0
BITMAP
7060
30E0
38E0
3960
5960
5A60
4AC0
4CC0
48C0
E9E0
ENDCHAR
STARTCHAR 004E
ENCODING 78
SWIDTH 654 0
DWIDTH 10 0
BBX 9 10 0 0
BITMAP
7980
3880
2C80
2C80
2E80
2680
4700
4300
4300
E100
ENDCHAR
STARTCHAR 004F
ENCODING 79
SWIDTH 720 0
DWIDTH 11 0
BBX 9 10 0 0
BITMAP
1E00
3300
6180
C180
C180
C180
C180
C300
6600
3C00
ENDCHAR
STARTCHAR 0050
ENCODING 80
SWIDTH 523 0
DWIDTH 8 0
BBX 8 10 0 0
BITMAP
7F
31
31
31
33
3E
60
60
60
F0
ENDCHAR
STARTCHAR 0051
ENCODING 81
SWIDTH 720 0
DWIDTH 11 0
BBX 9 12 0 -2
BITMAP
1E00
3300
6180
C180
C180
C180
C180
C300
6600
3C00
0C00
0700
ENDCHAR
STARTCHAR 0052
ENCODING 82
SWIDTH 589 0
DWIDTH 9 0
BBX 8 10 0 0
BITMAP
7F
31
31
31
3F
36
66
66
63
F3
ENDCHAR
STARTCHAR 0053
ENCODING 83
SWIDTH 523 0
DWIDTH 8 0
BBX 7 10 0 0
BITMAP
3E
62
62
70
38
1C
0C
8C
8C
F8
ENDCHAR
STARTCHAR 0054
ENCODING 84
SWIDTH 589 0
DWIDTH 9 0
BBX 8 10 0 0
BITMAP
FF
99
99
18
18
18
30
30
30
78
ENDCHAR
STARTCHAR 0055
ENCODING 85
SWIDTH 654 0
DWIDTH 10 0
BBX 9 10 0 0
BITMAP
F180
6080
6080
6080
C100
C100
C100
C100
C200
7C00
ENDCHAR
STARTCHAR 0056
ENCODING 86
SWIDTH 589 0
DWIDTH 9 0
BBX 9 10 0 0
BITMAP
F380
6100
6200
6200
7400
3400
3800
3000
3000
2000
ENDCHAR
STARTCHAR 0057
ENCODING 87
SWIDTH 850 0
DWIDTH 13 0
BBX 12 10 0 0
BITMAP
F070
6220
6640
6640
6E80
6E80
7700
7700
2600
2200
ENDCHAR
STARTCHAR 0058
ENCODING 88
SWIDTH 589 0
DWIDTH 9 0
BBX 9 10 0 0
BITMAP
7980
3080
1900
1A00
0C00
0C00
1600
2600
4300
E780
ENDCHAR
STARTCHAR 0059
ENCODING 89
SWIDTH 589 0
DWIDTH 9 0
BBX 8 10 0 0
BITMAP
F3
61
32
34
34
18
18
30
30
FC
ENDCHAR
STARTCHAR 005A
ENCODING 90
SWIDTH 589 0
DWIDTH 9 0
BBX 9 10 0 0
BITMAP
3F80
2300
2600
0600
0C00
1800
3000
3100
6100
FE00
ENDCHAR
STARTCHAR 005B
ENCODING 91
SWIDTH 327 0
DWIDTH 5 0
BBX 6 12 0 -2
BITMAP
3C
30
30
30
60
60
60
60
60
C0
C0
E0
ENDCHAR
STARTCHAR 005C
ENCODING 92
SWIDTH 261 0
DWIDTH 4 0
BBX 2 10 0 0
BITMAP
80
80
80
80
80
80
40
40
40
40
ENDCHAR
STARTCHAR 005D
ENCODING 93
SWIDTH 327 0
DWIDTH 5 0
BBX 6 12 -1 -2
BITMAP
3C
0C
0C
0C
18
18
18
18
18
30
30
F0
ENDCHAR
STARTCHAR 005E
ENCODING 94
SWIDTH 589 0
DWIDTH 9 0
BBX 7 7 0 3
BITMAP
10
30
28
28
44
44
82
ENDCHAR
STARTCHAR 005F
ENCODING 95
SWIDTH 523 0
DWIDTH 8 0
BBX 8 1 -1 -2
BITMAP
FF
ENDCHAR
STARTCHAR 0060
ENCODING 96
SWIDTH 327 0
DWIDTH 5 0
BBX 3 2 0 8
BITMAP
C0
20
ENDCHAR
STARTCHAR 0061
ENCODING 97
SWIDTH 523 0
DWIDTH 8 0
BBX 7 7 0 0
BITMAP
3E
66
C6
CC
CC
CC
7E
ENDCHAR
STARTCHAR 0062
ENCODING 98
SWIDTH 458 0
DWIDTH 7 0
BBX 6 10 0 0
BITMAP
E0
60
60
78
6C
6C
6C
CC
D8
F0
ENDCHAR
STARTCHAR 0063
ENCODING 99
SWIDTH 458 0
DWIDTH 7 0
BBX 6 7 0 0
BITMAP
3C
64
C0
C0
C0
C8
70
ENDCHAR
STARTCHAR 0064
ENCODING 100
SWIDTH 523 0
DWIDTH 8 0
BBX 8 10 0 0
BITMAP
07
03
06
3E
66
C6
C6
CC
CC
7E
ENDCHAR
STARTCHAR 0065
ENCODING 101
SWIDTH 458 0
DWIDTH 7 0
BBX 6 7 0 0
BITMAP
38
6C
CC
F0
C0
C8
70
ENDCHAR
STARTCHAR 0066
ENCODING 102
SWIDTH 327 0
DWIDTH 5 0
BBX 6 13 0 -3
BITMAP
1C
34
30
78
30
60
60
60
60
60
C0
C0
C0
ENDCHAR
STARTCHAR 0067
ENCODING 103
SWIDTH 523 0
DWIDTH 8 0
BBX 8 10 -1 -3
BITMAP
1F
33
63
66
66
66
3E
06
8C
F8
ENDCHAR
STARTCHAR 0068
ENCODING 104
SWIDTH 523 0
DWIDTH 8 0
BBX 7 10 0 0
BITMAP
70
30
60
6C
76
66
66
CC
CC
CE
ENDCHAR
STARTCHAR 0069
ENCODING 105
SWIDTH 261 0
DWIDTH 4 0
BBX 4 10 0 0
BITMAP
30
30
00
E0
60
60
60
C0
C0
E0
ENDCHAR
STARTCHAR 006A
ENCODING 106
SWIDTH 261 0
DWIDTH 4 0
BBX 7 13 -3 -3
BITMAP
06
06
00
1C
0C
0C
0C
18
18
18
18
B0
E0
ENDCHAR
STARTCHAR 006B
ENCODING 107
SWIDTH 523 0
DWIDTH 8 0
BBX 8 10 0 0
BITMAP
70
30
60
67
64
68
7C
CC
CC
C6
ENDCHAR
STARTCHAR 006C
ENCODING 108
SWIDTH 261 0
DWIDTH 4 0
BBX 4 10 0 0
BITMAP
70
30
60
60
60
60
60
C0
C0
E0
ENDCHAR
STARTCHAR 006D
ENCODING 109
SWIDTH 785 0
DWIDTH 12 0
BBX 11 7 0 0
BITMAP
ECC0
7760
6660
6660
CCC0
CCC0
CCE0
ENDCHAR
STARTCHAR 006E
ENCODING 110
SWIDTH 523 0
DWIDTH 8 0
BBX 7 7 0 0
BITMAP
EC
76
66
66
CC
CC
CE
ENDCHAR
STARTCHAR 006F
ENCODING 111
SWIDTH 458 0
DWIDTH 7 0
BBX 6 7 0 0
BITMAP
38
6C
CC
CC
CC
D8
70
ENDCHAR
STARTCHAR 0070
ENCODING 112
SWIDTH 523 0
DWIDTH 8 0
BBX 8 10 -1 -3
BITMAP
3B
1D
19
19
31
33
3E
30
30
78
ENDCHAR
STARTCHAR 0071
ENCODING 113
SWIDTH 523 0
DWIDTH 8 0
BBX 7 10 0 -3
BITMAP
3E
66
C6
C6
CC
CC
7C
0C
0C
0E
ENDCHAR
STARTCHAR 0072
ENCODING 114
SWIDTH 392 0
DWIDTH 6 0
BBX 6 7 0 0
BITMAP
EC
74
64
60
C0
C0
C0
ENDCHAR
STARTCHAR 0073
ENCODING 115
SWIDTH 392 0
DWIDTH 6 0
BBX 6 7 0 0
BITMAP
3C
64
60
30
18
98
F0
ENDCHAR
STARTCHAR 0074
ENCODING 116
SWIDTH 261 0
DWIDTH 4 0
BBX 4 9 0 0
BITMAP
20
60
F0
60
60
C0
C0
C0
60
ENDCHAR
STARTCHAR 0075
ENCODING 117
SWIDTH 523 0
DWIDTH 8 0
BBX 7 7 0 0
BITMAP
E6
66
66
66
CC
CC
7E
ENDCHAR
STARTCHAR 0076
ENCODING 118
SWIDTH 458 0
DWIDTH 7 0
BBX 7 7 0 0
BITMAP
E6
62
64
68
70
60
40
ENDCHAR
STARTCHAR 0077
ENCODING 119
SWIDTH 654 0
DWIDTH 10 0
BBX 9 7 0 0
BITMAP
E180
6480
6D00
7500
3600
3600
2400
ENDCHAR
STARTCHAR 0078
ENCODING 120
SWIDTH 523 0
DWIDTH 8 0
BBX 8 7 0 0
BITMAP
73
32
1C
18
38
4C
CE
ENDCHAR
STARTCHAR 0079
ENCODING 121
SWIDTH 458 0
DWIDTH 7 0
BBX 8 10 -1 -3
BITMAP
39
18
19
1A
1C
18
18
10
20
C0
ENDCHAR
STARTCHAR 007A
ENCODING 122
SWIDTH 392 0
DWIDTH 6 0
BBX 6 7 0 0
BITMAP
7C
58
18
30
60
68
F8
ENDCHAR
STARTCHAR 007B
ENCODING 123
SWIDTH 327 0
DWIDTH 5 0
BBX 6 12 0 -2
BITMAP
0C
18
30
30
30
C0
60
60
60
60
60
30
ENDCHAR
STARTCHAR 007C
ENCODING 124
SWIDTH 196 0
DWIDTH 3 0
BBX 1 13 0 -3
BITMAP
80
80
80
80
80
80
80
80
80
80
80
80
80
ENDCHAR
STARTCHAR 007D
ENCODING 125
SWIDTH 327 0
DWIDTH 5 0
BBX 6 12 -1 -2
BITMAP
30
18
18
18
18
0C
30
30
30
30
60
C0
ENDCHAR
STARTCHAR 007E
ENCODING 126
SWIDTH 589 0
DWIDTH 9 0
BBX 8 3 0 4
BITMAP
61
99
86
ENDCHAR
STARTCHAR 00A0
ENCODING 160
SWIDTH 196 0
DWIDTH 3 0
BBX 0 0 0 0
BITMAP
ENDCHAR
STARTCHAR 00A1
ENCODING 161
SWIDTH 327 0
DWIDTH 5 0
BBX 4 10 0 -3
BITMAP
30
30
00
20
20
40
40
40
C0
C0
ENDCHAR
STARTCHAR 00A2
ENCODING 162
SWIDTH 523 0
DWIDTH 8 0
BBX 7 10 1 0
BITMAP
08
3E
6A
6A
D0
D0
D0
D4
78
10
ENDCHAR
STARTCHAR 00A3
ENCODING 163
SWIDTH 523 0
DWIDTH 8 0
BBX 8 10 0 0
BITMAP
0F
19
31
30
30
7C
20
20
40
FE
ENDCHAR
STARTCHAR 00A4
ENCODING 164
SWIDTH 458 0
DWIDTH 7 0
BBX 6 6 1 1
BITMAP
58
24
40
40
24
58
ENDCHAR
STARTCHAR 00A5
ENCODING 165
SWIDTH 523 0
DWIDTH 8 0
BBX 8 10 1 0
BITMAP
F7
62
34
34
38
7E
30
FC
30
78
ENDCHAR
STARTCHAR 00A6
ENCODING 166
SWIDTH 196 0
DWIDTH 3 0
BBX 1 13 1 -3
BITMAP
80
80
80
80
80
00
00
00
80
80
80
80
80
ENDCHAR
STARTCHAR 00A7
ENCODING 167
SWIDTH 523 0
DWIDTH 8 0
BBX 7 12 0 -2
BITMAP
1E
22
20
18
24
44
48
30
08
08
88
F0
ENDCHAR
STARTCHAR 00A8
ENCODING 168
SWIDTH 327 0
DWIDTH 5 0
BBX 5 2 1 8
BITMAP
D8
D8
ENDCHAR
STARTCHAR 00A9
ENCODING 169
SWIDTH 720 0
DWIDTH 11 0
BBX 10 10 0 0
BITMAP
1E00
6180
5E80
A240
A040
A040
A240
5E80
6180
1E00
ENDCHAR
STARTCHAR 00AA
ENCODING 170
SWIDTH 261 0
DWIDTH 4 0
BBX 4 5 1 5
BITMAP
70
A0
A0
A0
60
ENDCHAR
STARTCHAR 00AB
ENCODING 171
SWIDTH 523 0
DWIDTH 8 0
BBX 7 5 1 1
BITMAP
12
6C
D8
48
24
ENDCHAR
STARTCHAR 00AC
ENCODING 172
SWIDTH 589 0
DWIDTH 9 0
BBX 7 4 1 2
BITMAP
FE
02
02
02
ENDCHAR
STARTCHAR 00AD
ENCODING 173
SWIDTH 327 0
DWIDTH 5 0
BBX 4 1 0 4
BITMAP
F0
ENDCHAR
STARTCHAR 00AE
ENCODING 174
SWIDTH 720 0
DWIDTH 11 0
BBX 10 10 0 0
BITMAP
1E00
6180
5C80
8A40
8A40
8C40
8A40
5D80
6180
1E00
ENDCHAR
STARTCHAR 00AF
ENCODING 175
SWIDTH 523 0
DWIDTH 8 0
BBX 8 1 1 11
BITMAP
FF
ENDCHAR
STARTCHAR 00B0
ENCODING 176
SWIDTH 392 0
DWIDTH 6 0
BBX 5 5 1 5
BITMAP
70
88
88
88
70
ENDCHAR
STARTCHAR 00B1
ENCODING 177
SWIDTH 523 0
DWIDTH 8 0
BBX 7 9 1 0
BITMAP
10
10
10
FE
10
10
10
00
FE
ENDCHAR
STARTCHAR 00B2
ENCODING 178
SWIDTH 327 0
DWIDTH 5 0
BBX 5 6 0 4
BITMAP
70
48
08
10
60
F0
ENDCHAR
STARTCHAR 00B3
ENCODING 179
SWIDTH 261 0
DWIDTH 4 0
BBX 4 6 0 4
BITMAP
60
10
60
10
90
E0
ENDCHAR
STARTCHAR 00B4
ENCODING 180
SWIDTH 327 0
DWIDTH 5 0
BBX 3 2 2 8
BITMAP
60
80
ENDCHAR
STARTCHAR 00B5
ENCODING 181
SWIDTH 589 0
DWIDTH 9 0
BBX 8 10 0 -3
BITMAP
71
31
31
31
63
67
7B
60
C0
C0
ENDCHAR
STARTCHAR 00B6
ENCODING 182
SWIDTH 523 0
DWIDTH 8 0
BBX 7 12 1 -2
BITMAP
7E
F4
F4
F4
F4
74
14
14
14
14
14
14
ENDCHAR
STARTCHAR 00B7
ENCODING 183
SWIDTH 261 0
DWIDTH 4 0
BBX 2 2 1 4
BITMAP
C0
C0
ENDCHAR
STARTCHAR 00B8
ENCODING 184
SWIDTH 327 0
DWIDTH 5 0
BBX 3 3 0 -3
BITMAP
40
20
C0
ENDCHAR
STARTCHAR 00B9
ENCODING 185
SWIDTH 327 0
DWIDTH 5 0
BBX 3 6 1 4
BITMAP
20
00
20
20
20
60
ENDCHAR
STARTCHAR 00BA
ENCODING 186
SWIDTH 327 0
DWIDTH 5 0
BBX 4 5 1 5
BITMAP
60
90
90
90
60
ENDCHAR
STARTCHAR 00BB
ENCODING 187
SWIDTH 523 0
DWIDTH 8 0
BBX 7 5 0 1
BITMAP
48
24
36
6C
90
ENDCHAR
STARTCHAR 00BC
ENCODING 188
SWIDTH 720 0
DWIDTH 11 0
BBX 8 10 2 0
BITMAP
60
21
42
42
44
E9
12
15
27
41
ENDCHAR
STARTCHAR 00BD
ENCODING 189
SWIDTH 720 0
DWIDTH 11 0
BBX 10 10 1 0
BITMAP
3100
1200
2400
2400
2B80
7240
2040
2080
4300
8780
ENDCHAR
STARTCHAR 00BE
ENCODING 190
SWIDTH 720 0
DWIDTH 11 0
BBX 9 10 0 0
BITMAP
6080
1100
6200
1200
9480
E980
1280
1500
2780
4100
ENDCHAR
STARTCHAR 00BF
ENCODING 191
SWIDTH 523 0
DWIDTH 8 0
BBX 6 10 0 -3
BITMAP
18
18
00
10
30
60
C0
C0
C4
7C
ENDCHAR
STARTCHAR 00C0
ENCODING 192
SWIDTH 654 0
DWIDTH 10 0
BBX 11 13 -1 0
BITMAP
0600
0100
0000
0300
0300
0580
0980
0980
1180
1F80
20C0
40C0
E1E0
ENDCHAR
STARTCHAR 00C1
ENCODING 193
SWIDTH 654 0
DWIDTH 10 0
BBX 11 13 -1 0
BITMAP
00C0
0100
0000
0300
0300
0580
0980
0980
1180
1F80
20C0
40C0
E1E0
ENDCHAR
STARTCHAR 00C2
ENCODING 194
SWIDTH 654 0
DWIDTH 10 0
BBX 11 14 -1 0
BITMAP
0100
0280
0440
0000
0300
0300
0580
0980
0980
1180
1F80
20C0
40C0
E1E0
ENDCHAR
STARTCHAR 00C3
ENCODING 195
SWIDTH 654 0
DWIDTH 10 0
BBX 11 13 -1 0
BITMAP
0640
0980
0000
0300
0300
0580
0980
0980
1180
1F80
20C0
40C0
E1E0
ENDCHAR
STARTCHAR 00C4
ENCODING 196
SWIDTH 654 0
DWIDTH 10 0
BBX 11 13 -1 0
BITMAP
06C0
06C0
0000
0300
0300
0580
0980
0980
1180
1F80
20C0
40C0
E1E0
ENDCHAR
STARTCHAR 00C5
ENCODING 197
SWIDTH 654 0
DWIDTH 10 0
BBX 11 12 -1 0
BITMAP
0100
0280
0300
0300
0580
0980
0980
1180
1F80
20C0
40C0
E1E0
ENDCHAR
STARTCHAR 00C6
ENCODING 198
SWIDTH 916 0
DWIDTH 14 0
BBX 14 10 -1 0
BITMAP
07FC
0384
0584
0590
09F0
1190
1F00
2308
4308
E7F8
ENDCHAR
STARTCHAR 00C7
ENCODING 199
SWIDTH 654 0
DWIDTH 10 0
BBX 9 13 1 -3
BITMAP
1F80
3080
6080
C000
C000
C000
C000
C100
6100
3E00
0800
0400
1800
ENDCHAR
STARTCHAR 00C8
ENCODING 200
SWIDTH 654 0
DWIDTH 10 0
BBX 8 13 1 0
BITMAP
0C
02
00
7F
30
30
32
3E
32
60
61
61
FF
ENDCHAR
STARTCHAR 00C9
ENCODING 201
SWIDTH 654 0
DWIDTH 10 0
BBX 8 13 1 0
BITMAP
03
04
00
7F
30
30
32
3E
32
60
61
61
FF
ENDCHAR
STARTCHAR 00CA
ENCODING 202
SWIDTH 654 0
DWIDTH 10 0
BBX 8 14 1 0
BITMAP
02
05
08
00
7F
30
30
32
3E
32
60
61
61
FF
ENDCHAR
STARTCHAR 00CB
ENCODING 203
SWIDTH 654 0
DWIDTH 10 0
BBX 8 13 1 0
BITMAP
1B
1B
00
7F
30
30
32
3E
32
60
61
61
FF
ENDCHAR
STARTCHAR 00CC
ENCODING 204
SWIDTH 392 0
DWIDTH 6 0
BBX 5 13 0 0
BITMAP
18
00
00
38
18
18
18
18
18
30
30
30
78
ENDCHAR
STARTCHAR 00CD
ENCODING 205
SWIDTH 392 0
DWIDTH 6 0
BBX 6 13 0 0
BITMAP
04
08
00
3C
18
18
18
18
18
30
30
30
78
ENDCHAR
STARTCHAR 00CE
ENCODING 206
SWIDTH 392 0
DWIDTH 6 0
BBX 6 14 0 0
BITMAP
08
14
20
00
3C
18
18
18
18
18
30
30
30
78
ENDCHAR
STARTCHAR 00CF
ENCODING 207
SWIDTH 392 0
DWIDTH 6 0
BBX 6 13 0 0
BITMAP
34
34
00
3C
18
18
18
18
18
30
30
30
78
ENDCHAR
STARTCHAR 00D0
ENCODING 208
SWIDTH 720 0
DWIDTH 11 0
BBX 10 10 0 -1
BITMAP
3F80
18C0
1840
1840
7E40
1840
3040
30C0
3180
7F00
ENDCHAR
STARTCHAR 00D1
ENCODING 209
SWIDTH 720 0
DWIDTH 11 0
BBX 10 13 0 0
BITMAP
0300
04C0
0000
3CC0
1C40
1640
1640
1740
1340
2380
2180
2180
7080
ENDCHAR
STARTCHAR 00D2
ENCODING 210
SWIDTH 720 0
DWIDTH 11 0
BBX 9 13 1 0
BITMAP
0C00
0200
0000
1E00
3300
6180
C180
C180
C180
C180
C300
6600
3C00
ENDCHAR
STARTCHAR 00D3
ENCODING 211
SWIDTH 720 0
DWIDTH 11 0
BBX 9 13 1 0
BITMAP
0300
0400
0000
1E00
3300
6180
C180
C180
C180
C180
C300
6600
3C00
ENDCHAR
STARTCHAR 00D4
ENCODING 212
SWIDTH 720 0
DWIDTH 11 0
BBX 9 14 1 0
BITMAP
0400
0A00
1100
0000
1E00
3300
6180
C180
C180
C180
C180
C300
6600
3C00
ENDCHAR
STARTCHAR 00D5
ENCODING 213
SWIDTH 720 0
DWIDTH 11 0
BBX 9 13 1 0
BITMAP
0E80
0B00
0000
1E00
3300
6180
C180
C180
C180
C180
C300
6600
3C00
ENDCHAR
STARTCHAR 00D6
ENCODING 214
SWIDTH 720 0
DWIDTH 11 0
BBX 9 13 1 0
BITMAP
1B00
1B00
0000
1E00
3300
6180
C180
C180
C180
C180
C300
6600
3C00
ENDCHAR
STARTCHAR 00D7
ENCODING 215
SWIDTH 589 0
DWIDTH 9 0
BBX 5 5 2 2
BITMAP
40
28
10
28
40
ENDCHAR
STARTCHAR 00D8
ENCODING 216
SWIDTH 720 0
DWIDTH 11 0
BBX 8 10 2 -1
BITMAP
1E
33
63
C5
C9
C9
D1
E3
66
BC
ENDCHAR
STARTCHAR 00D9
ENCODING 217
SWIDTH 720 0
DWIDTH 11 0
BBX 10 13 1 0
BITMAP
0600
0100
0000
78C0
3040
3040
3040
6080
6080
6080
6080
6100
3E00
ENDCHAR
STARTCHAR 00DA
ENCODING 218
SWIDTH 720 0
DWIDTH 11 0
BBX 10 13 1 0
BITMAP
0180
0200
0000
78C0
3040
3040
3040
6080
6080
6080
6080
6100
3E00
ENDCHAR
STARTCHAR 00DB
ENCODING 219
SWIDTH 720 0
DWIDTH 11 0
BBX 10 14 1 0
BITMAP
0200
0500
0880
0000
78C0
3040
3040
3040
6080
6080
6080
6080
6100
3E00
ENDCHAR
STARTCHAR 00DC
ENCODING 220
SWIDTH 720 0
DWIDTH 11 0
BBX 10 13 1 0
BITMAP
06C0
06C0
0000
78C0
3040
3040
3040
6080
6080
6080
6080
6100
3E00
ENDCHAR
STARTCHAR 00DD
ENCODING 221
SWIDTH 654 0
DWIDTH 10 0
BBX 8 13 2 0
BITMAP
03
04
00
F3
61
32
34
34
18
18
30
30
FC
ENDCHAR
STARTCHAR 00DE
ENCODING 222
SWIDTH 589 0
DWIDTH 9 0
BBX 8 10 1 0
BITMAP
78
30
3F
31
31
31
63
7E
60
F0
ENDCHAR
STARTCHAR 00DF
ENCODING 223
SWIDTH 523 0
DWIDTH 8 0
BBX 9 10 -1 0
BITMAP
0F00
1980
3180
3200
3600
3600
6700
6300
6B00
EE00
ENDCHAR
STARTCHAR 00E0
ENCODING 224
SWIDTH 523 0
DWIDTH 8 0
BBX 7 10 0 0
BITMAP
18
04
00
3E
66
C6
CC
CC
CC
7E
ENDCHAR
STARTCHAR 00E1
ENCODING 225
SWIDTH 523 0
DWIDTH 8 0
BBX 7 10 0 0
BITMAP
06
08
00
3E
66
C6
CC
CC
CC
7E
ENDCHAR
STARTCHAR 00E2
ENCODING 226
SWIDTH 523 0
DWIDTH 8 0
BBX 7 11 0 0
BITMAP
08
14
22
00
3E
66
C6
CC
CC
CC
7E
ENDCHAR
STARTCHAR 00E3
ENCODING 227
SWIDTH 523 0
DWIDTH 8 0
BBX 8 10 0 0
BITMAP
19
26
00
3E
66
C6
CC
CC
CC
7E
ENDCHAR
STARTCHAR 00E4
ENCODING 228
SWIDTH 523 0
DWIDTH 8 0
BBX 7 10 0 0
BITMAP
36
36
00
3E
66
C6
CC
CC
CC
7E
ENDCHAR
STARTCHAR 00E5
ENCODING 229
SWIDTH 523 0
DWIDTH 8 0
BBX 7 11 0 0
BITMAP
08
14
08
00
3E
66
C6
CC
CC
CC
7E
ENDCHAR
STARTCHAR 00E6
ENCODING 230
SWIDTH 720 0
DWIDTH 11 0
BBX 10 7 0 0
BITMAP
3F80
66C0
CCC0
CF00
CC00
CC00
7700
ENDCHAR
STARTCHAR 00E7
ENCODING 231
SWIDTH 458 0
DWIDTH 7 0
BBX 6 10 0 -3
BITMAP
3C
64
C0
C0
C0
C8
70
20
10
60
ENDCHAR
STARTCHAR 00E8
ENCODING 232
SWIDTH 458 0
DWIDTH 7 0
BBX 6 10 0 0
BITMAP
30
08
00
38
6C
CC
F0
C0
C8
70
ENDCHAR
STARTCHAR 00E9
ENCODING 233
SWIDTH 458 0
DWIDTH 7 0
BBX 7 10 0 0
BITMAP
06
08
00
38
6C
CC
F0
C0
C8
70
ENDCHAR
STARTCHAR 00EA
ENCODING 234
SWIDTH 458 0
DWIDTH 7 0
BBX 7 11 0 0
BITMAP
08
14
22
00
38
6C
CC
F0
C0
C8
70
ENDCHAR
STARTCHAR 00EB
ENCODING 235
SWIDTH 458 0
DWIDTH 7 0
BBX 7 10 0 0
BITMAP
36
36
00
38
6C
CC
F0
C0
C8
70
ENDCHAR
STARTCHAR 00EC
ENCODING 236
SWIDTH 261 0
DWIDTH 4 0
BBX 4 10 0 0
BITMAP
60
10
00
E0
60
60
60
C0
C0
E0
ENDCHAR
STARTCHAR 00ED
ENCODING 237
SWIDTH 261 0
DWIDTH 4 0
BBX 5 10 0 0
BITMAP
18
20
00
E0
60
60
60
C0
C0
E0
ENDCHAR
STARTCHAR 00EE
ENCODING 238
SWIDTH 261 0
DWIDTH 4 0
BBX 5 11 0 0
BITMAP
20
50
88
00
E0
60
60
60
C0
C0
E0
ENDCHAR
STARTCHAR 00EF
ENCODING 239
SWIDTH 261 0
DWIDTH 4 0
BBX 5 10 0 0
BITMAP
D8
D8
00
E0
60
60
60
C0
C0
E0
ENDCHAR
STARTCHAR 00F0
ENCODING 240
SWIDTH 523 0
DWIDTH 8 0
BBX 7 10 0 0
BITMAP
32
1C
24
3E
66
C6
C6
C6
CC
78
ENDCHAR
STARTCHAR 00F1
ENCODING 241
SWIDTH 523 0
DWIDTH 8 0
BBX 8 10 0 0
BITMAP
19
26
00
EC
76
66
66
CC
CC
CE
ENDCHAR
STARTCHAR 00F2
ENCODING 242
SWIDTH 458 0
DWIDTH 7 0
BBX 6 10 0 0
BITMAP
30
08
00
38
6C
CC
CC
CC
D8
70
ENDCHAR
STARTCHAR 00F3
ENCODING 243
SWIDTH 458 0
DWIDTH 7 0
BBX 6 10 0 0
BITMAP
0C
10
00
38
6C
CC
CC
CC
D8
70
ENDCHAR
STARTCHAR 00F4
ENCODING 244
SWIDTH 458 0
DWIDTH 7 0
BBX 7 11 0 0
BITMAP
08
14
22
00
38
6C
CC
CC
CC
D8
70
ENDCHAR
STARTCHAR 00F5
ENCODING 245
SWIDTH 458 0
DWIDTH 7 0
BBX 7 10 0 0
BITMAP
32
4C
00
38
6C
CC
CC
CC
D8
70
ENDCHAR
STARTCHAR 00F6
ENCODING 246
SWIDTH 458 0
DWIDTH 7 0
BBX 7 10 0 0
BITMAP
36
36
00
38
6C
CC
CC
CC
D8
70
ENDCHAR
STARTCHAR 00F7
ENCODING 247
SWIDTH 523 0
DWIDTH 8 0
BBX 6 7 1 2
BITMAP
30
30
00
FC
00
30
30
ENDCHAR
STARTCHAR 00F8
ENCODING 248
SWIDTH 523 0
DWIDTH 8 0
BBX 7 7 0 -1
BITMAP
1E
32
66
6A
72
66
7C
ENDCHAR
STARTCHAR 00F9
ENCODING 249
SWIDTH 523 0
DWIDTH 8 0
BBX 7 10 0 0
BITMAP
18
04
00
E6
66
66
66
CC
CC
7E
ENDCHAR
STARTCHAR 00FA
ENCODING 250
SWIDTH 523 0
DWIDTH 8 0
BBX 7 10 0 0
BITMAP
06
08
00
E6
66
66
66
CC
CC
7E
ENDCHAR
STARTCHAR 00FB
ENCODING 251
SWIDTH 523 0
DWIDTH 8 0
BBX 7 11 0 0
BITMAP
08
14
22
00
E6
66
66
66
CC
CC
7E
ENDCHAR
STARTCHAR 00FC
ENCODING 252
SWIDTH 523 0
DWIDTH 8 0
BBX 7 10 0 0
BITMAP
36
36
00
E6
66
66
66
CC
CC
7E
ENDCHAR
STARTCHAR 00FD
ENCODING 253
SWIDTH 458 0
DWIDTH 7 0
BBX 8 13 -1 -3
BITMAP
03
04
00
39
18
19
1A
1C
18
18
10
20
C0
ENDCHAR
STARTCHAR 00FE
ENCODING 254
SWIDTH 458 0
DWIDTH 7 0
BBX 7 13 -1 -3
BITMAP
38
18
18
1E
1A
1A
1A
32
36
3C
30
30
78
ENDCHAR
STARTCHAR 00FF
ENCODING 255
SWIDTH 458 0
DWIDTH 7 0
BBX 8 13 -1 -3
BITMAP
1B
1B
00
39
18
19
1A
1C
18
18
10
20
C0
ENDCHAR
STARTCHAR 0100
ENCODING 256
SWIDTH 654 0
DWIDTH 10 0
BBX 11 12 -1 0
BITMAP
07C0
0000
0300
0300
0580
0980
0980
1180
1F80
20C0
40C0
E1E0
ENDCHAR
STARTCHAR 0101
ENCODING 257
SWIDTH 523 0
DWIDTH 8 0
BBX 7 9 0 0
BITMAP
3E
00
3E
66
C6
CC
CC
CC
7E
ENDCHAR
STARTCHAR 0102
ENCODING 258
SWIDTH 654 0
DWIDTH 10 0
BBX 11 13 -1 0
BITMAP
0240
0180
0000
0300
0300
0580
0980
0980
1180
1F80
20C0
40C0
E1E0
ENDCHAR
STARTCHAR 0103
ENCODING 259
SWIDTH 523 0
DWIDTH 8 0
BBX 7 10 0 0
BITMAP
12
0C
00
3E
66
C6
CC
CC
CC
7E
ENDCHAR
STARTCHAR 0104
ENCODING 260
SWIDTH 654 0
DWIDTH 10 0
BBX 11 13 -1 -3
BITMAP
0300
0300
0580
0980
0980
1180
1F80
20C0
40C0
E1E0
0080
0080
0060
ENDCHAR
STARTCHAR 0105
ENCODING 261
SWIDTH 523 0
DWIDTH 8 0
BBX 7 10 0 -3
BITMAP
3E
66
C6
CC
CC
CC
7E
08
08
06
ENDCHAR
STARTCHAR 0106
ENCODING 262
SWIDTH 654 0
DWIDTH 10 0
BBX 9 13 1 0
BITMAP
0300
0400
0000
1F80
3080
6080
C000
C000
C000
C000
C100
6100
3E00
ENDCHAR
STARTCHAR 0107
ENCODING 263
SWIDTH 458 0
DWIDTH 7 0
BBX 7 10 0 0
BITMAP
06
08
00
3C
64
C0
C0
C0
C8
70
ENDCHAR
STARTCHAR 0108
ENCODING 264
SWIDTH 654 0
DWIDTH 10 0
BBX 9 14 1 0
BITMAP
0200
0500
0880
0000
1F80
3080
6080
C000
C000
C000
C000
C100
6100
3E00
ENDCHAR
STARTCHAR 0109
ENCODING 265
SWIDTH 458 0
DWIDTH 7 0
BBX 7 11 0 0
BITMAP
08
14
22
00
3C
64
C0
C0
C0
C8
70
ENDCHAR
STARTCHAR 010A
ENCODING 266
SWIDTH 654 0
DWIDTH 10 0
BBX 9 13 1 0
BITMAP
0600
0600
0000
1F80
3080
6080
C000
C000
C000
C000
C100
6100
3E00
ENDCHAR
STARTCHAR 010B
ENCODING 267
SWIDTH 458 0
DWIDTH 7 0
BBX 6 10 0 0
BITMAP
18
18
00
3C
64
C0
C0
C0
C8
70
ENDCHAR
STARTCHAR 010C
ENCODING 268
SWIDTH 654 0
DWIDTH 10 0
BBX 9 14 1 0
BITMAP
0880
0500
0200
0000
1F80
3080
6080
C000
C000
C000
C000
C100
6100
3E00
ENDCHAR
STARTCHAR 010D
ENCODING 269
SWIDTH 458 0
DWIDTH 7 0
BBX 7 11 0 0
BITMAP
22
14
08
00
3C
64
C0
C0
C0
C8
70
ENDCHAR
STARTCHAR 010E
ENCODING 270
SWIDTH 720 0
DWIDTH 11 0
BBX 10 14 0 -1
BITMAP
0440
0280
0100
0000
3F80
18C0
1840
1840
1840
1840
3040
30C0
3180
7F00
ENDCHAR
STARTCHAR 010F
ENCODING 271
SWIDTH 720 0
DWIDTH 11 0
BBX 11 10 0 0
BITMAP
0760
0320
0640
3E80
6600
C600
C600
CC00
CC00
7E00
ENDCHAR
STARTCHAR 0110
ENCODING 272
SWIDTH 720 0
DWIDTH 11 0
BBX 10 10 0 -1
BITMAP
3F80
18C0
1840
1840
7E40
1840
3040
30C0
3180
7F00
ENDCHAR
STARTCHAR 0111
ENCODING 273
SWIDTH 523 0
DWIDTH 8 0
BBX 8 10 0 0
BITMAP
03
0F
06
3E
66
C6
C6
CC
CC
7E
ENDCHAR
STARTCHAR 0112
ENCODING 274
SWIDTH 654 0
DWIDTH 10 0
BBX 8 12 1 0
BITMAP
1F
00
7F
30
30
32
3E
32
60
61
61
FF
ENDCHAR
STARTCHAR 0113
ENCODING 275
SWIDTH 458 0
DWIDTH 7 0
BBX 7 9 0 0
BITMAP
3E
00
38
6C
CC
F0
C0
C8
70
ENDCHAR
STARTCHAR 0114
ENCODING 276
SWIDTH 654 0
DWIDTH 10 0
BBX 8 13 1 0
BITMAP
09
06
00
7F
30
30
32
3E
32
60
61
61
FF
ENDCHAR
STARTCHAR 0115
ENCODING 277
SWIDTH 458 0
DWIDTH 7 0
BBX 6 10 0 0
BITMAP
24
18
00
38
6C
CC
F0
C0
C8
70
ENDCHAR
STARTCHAR 0116
ENCODING 278
SWIDTH 654 0
DWIDTH 10 0
BBX 8 13 1 0
BITMAP
06
06
00
7F
30
30
32
3E
32
60
61
61
FF
ENDCHAR
STARTCHAR 0117
ENCODING 279
SWIDTH 458 0
DWIDTH 7 0
BBX 6 10 0 0
BITMAP
18
18
00
38
6C
CC
F0
C0
C8
70
ENDCHAR
STARTCHAR 0118
ENCODING 280
SWIDTH 654 0
DWIDTH 10 0
BBX 8 13 1 -3
BITMAP
7F
30
30
32
3E
32
60
61
61
FF
04
04
03
ENDCHAR
STARTCHAR 0119
ENCODING 281
SWIDTH 458 0
DWIDTH 7 0
BBX 6 10 0 -3
BITMAP
38
6C
CC
F0
C0
C8
70
20
20
18
ENDCHAR
STARTCHAR 011A
ENCODING 282
SWIDTH 654 0
DWIDTH 10 0
BBX 8 14 1 0
BITMAP
08
05
02
00
7F
30
30
32
3E
32
60
61
61
FF
ENDCHAR
STARTCHAR 011B
ENCODING 283
SWIDTH 458 0
DWIDTH 7 0
BBX 7 11 0 0
BITMAP
22
14
08
00
38
6C
CC
F0
C0
C8
70
ENDCHAR
STARTCHAR 011C
ENCODING 284
SWIDTH 720 0
DWIDTH 11 0
BBX 9 14 1 0
BITMAP
0200
0500
0880
0000
1F80
3080
6080
C000
C000
C780
C300
C300
6300
3E00
ENDCHAR
STARTCHAR 011D
ENCODING 285
SWIDTH 523 0
DWIDTH 8 0
BBX 8 14 -1 -3
BITMAP
04
0A
11
00
1F
33
63
66
66
66
3E
06
8C
F8
ENDCHAR
STARTCHAR 011E
ENCODING 286
SWIDTH 720 0
DWIDTH 11 0
BBX 9 13 1 0
BITMAP
0900
0600
0000
1F80
3080
6080
C000
C000
C780
C300
C300
6300
3E00
ENDCHAR
STARTCHAR 011F
ENCODING 287
SWIDTH 523 0
DWIDTH 8 0
BBX 8 13 -1 -3
BITMAP
09
06
00
1F
33
63
66
66
66
3E
06
8C
F8
ENDCHAR
STARTCHAR 0120
ENCODING 288
SWIDTH 720 0
DWIDTH 11 0
BBX 9 13 1 0
BITMAP
0600
0600
0000
1F80
3080
6080
C000
C000
C780
C300
C300
6300
3E00
ENDCHAR
STARTCHAR 0121
ENCODING 289
SWIDTH 523 0
DWIDTH 8 0
BBX 8 13 -1 -3
BITMAP
0C
0C
00
1F
33
63
66
66
66
3E
06
8C
F8
ENDCHAR
STARTCHAR 0122
ENCODING 290
SWIDTH 720 0
DWIDTH 11 0
BBX 9 14 1 -4
BITMAP
1F80
3080
6080
C000
C000
C780
C300
C300
6300
3E00
0000
1800
0800
3000
ENDCHAR
STARTCHAR 0123
ENCODING 291
SWIDTH 523 0
DWIDTH 8 0
BBX 8 14 -1 -3
BITMAP
06
08
0C
00
1F
33
63
66
66
66
3E
06
8C
F8
ENDCHAR
STARTCHAR 0124
ENCODING 292
SWIDTH 785 0
DWIDTH 12 0
BBX 11 14 0 0
BITMAP
0100
0280
0440
0000
3CE0
1860
1860
1860
1FE0
1860
30C0
30C0
30C0
79E0
ENDCHAR
STARTCHAR 0125
ENCODING 293
SWIDTH 523 0
DWIDTH 8 0
BBX 8 14 0 0
BITMAP
04
0A
11
00
70
30
60
6C
76
66
66
CC
CC
CE
ENDCHAR
STARTCHAR 0126
ENCODING 294
SWIDTH 785 0
DWIDTH 12 0
BBX 12 10 0 0
BITMAP
3CF0
1860
3FF0
1860
1FE0
1860
30C0
30C0
30C0
79E0
ENDCHAR
STARTCHAR 0127
ENCODING 295
SWIDTH 523 0
DWIDTH 8 0
BBX 7 10 0 0
BITMAP
70
F8
60
6C
76
66
66
CC
CC
CE
ENDCHAR
STARTCHAR 0128
ENCODING 296
SWIDTH 392 0
DWIDTH 6 0
BBX 7 13 0 0
BITMAP
18
26
00
3C
18
18
18
18
18
30
30
30
78
ENDCHAR
STARTCHAR 0129
ENCODING 297
SWIDTH 261 0
DWIDTH 4 0
BBX 6 10 0 0
BITMAP
64
98
00
E0
60
60
60
C0
C0
E0
ENDCHAR
STARTCHAR 012A
ENCODING 298
SWIDTH 392 0
DWIDTH 6 0
BBX 7 12 0 0
BITMAP
1E
00
3C
18
18
18
18
18
30
30
30
78
ENDCHAR
STARTCHAR 012B
ENCODING 299
SWIDTH 261 0
DWIDTH 4 0
BBX 5 9 0 0
BITMAP
F8
00
E0
60
60
60
C0
C0
E0
ENDCHAR
STARTCHAR 012C
ENCODING 300
SWIDTH 392 0
DWIDTH 6 0
BBX 6 13 0 0
BITMAP
10
0C
00
3C
18
18
18
18
18
30
30
30
78
ENDCHAR
STARTCHAR 012D
ENCODING 301
SWIDTH 261 0
DWIDTH 4 0
BBX 5 10 0 0
BITMAP
48
30
00
E0
60
60
60
C0
C0
E0
ENDCHAR
STARTCHAR 012E
ENCODING 302
SWIDTH 392 0
DWIDTH 6 0
BBX 5 13 0 -3
BITMAP
38
18
18
18
18
18
30
30
30
78
20
20
18
ENDCHAR
STARTCHAR 012F
ENCODING 303
SWIDTH 261 0
DWIDTH 4 0
BBX 4 13 0 -3
BITMAP
30
30
00
E0
60
60
60
C0
C0
E0
80
80
60
ENDCHAR
STARTCHAR 0130
ENCODING 304
SWIDTH 392 0
DWIDTH 6 0
BBX 5 13 0 0
BITMAP
08
08
00
38
18
18
18
18
18
30
30
30
78
ENDCHAR
STARTCHAR 0131
ENCODING 305
SWIDTH 261 0
DWIDTH 4 0
BBX 3 7 0 0
BITMAP
E0
60
60
60
C0
C0
E0
ENDCHAR
STARTCHAR 0132
ENCODING 306
SWIDTH 785 0
DWIDTH 12 0
BBX 11 10 0 0
BITMAP
3CE0
1860
1860
1860
1860
1860
30C0
30C0
34C0
7F80
ENDCHAR
STARTCHAR 0133
ENCODING 307
SWIDTH 523 0
DWIDTH 8 0
BBX 8 13 0 -3
BITMAP
33
33
00
EE
66
66
66
CC
CC
EC
0C
58
70
ENDCHAR
STARTCHAR 0134
ENCODING 308
SWIDTH 523 0
DWIDTH 8 0
BBX 8 14 0 0
BITMAP
04
0A
11
00
1E
0C
0C
0C
0C
0C
18
18
98
F0
ENDCHAR
STARTCHAR 0135
ENCODING 309
SWIDTH 261 0
DWIDTH 4 0
BBX 7 13 -2 -3
BITMAP
1C
36
00
38
18
18
18
30
30
30
30
A0
E0
ENDCHAR
STARTCHAR 0136
ENCODING 310
SWIDTH 654 0
DWIDTH 10 0
BBX 10 14 0 -4
BITMAP
3CC0
1880
1900
1A00
1E00
1B00
3300
3300
3180
79C0
0000
0600
0200
0C00
ENDCHAR
STARTCHAR 0137
ENCODING 311
SWIDTH 523 0
DWIDTH 8 0
BBX 8 14 0 -4
BITMAP
70
30
60
67
64
68
7C
CC
CC
C6
00
30
10
60
ENDCHAR
STARTCHAR 0138
ENCODING 312
SWIDTH 523 0
DWIDTH 8 0
BBX 8 7 0 0
BITMAP
E7
64
78
6C
CC
CC
C6
ENDCHAR
STARTCHAR 0139
ENCODING 313
SWIDTH 589 0
DWIDTH 9 0
BBX 8 13 0 0
BITMAP
06
08
00
3C
18
18
18
18
18
30
30
30
7F
ENDCHAR
STARTCHAR 013A
ENCODING 314
SWIDTH 261 0
DWIDTH 4 0
BBX 5 13 0 0
BITMAP
18
20
00
70
30
60
60
60
60
60
C0
C0
E0
ENDCHAR
STARTCHAR 013B
ENCODING 315
SWIDTH 589 0
DWIDTH 9 0
BBX 8 14 0 -4
BITMAP
3C
18
18
18
18
18
30
30
30
7F
00
0C
04
18
ENDCHAR
STARTCHAR 013C
ENCODING 316
SWIDTH 261 0
DWIDTH 4 0
BBX 4 14 0 -4
BITMAP
70
30
60
60
60
60
60
C0
C0
E0
00
60
20
C0
ENDCHAR
STARTCHAR 013D
ENCODING 317
SWIDTH 589 0
DWIDTH 9 0
BBX 8 10 1 0
BITMAP
79
30
31
32
30
30
60
61
61
FE
ENDCHAR
STARTCHAR 013E
ENCODING 318
SWIDTH 523 0
DWIDTH 8 0
BBX 7 10 0 0
BITMAP
76
32
64
68
60
60
60
C0
C0
E0
ENDCHAR
STARTCHAR 013F
ENCODING 319
SWIDTH 589 0
DWIDTH 9 0
BBX 8 10 0 0
BITMAP
3C
18
18
18
1B
1B
30
30
30
7F
ENDCHAR
STARTCHAR 0140
ENCODING 320
SWIDTH 392 0
DWIDTH 6 0
BBX 8 10 0 0
BITMAP
70
30
60
60
63
63
60
C0
C0
E0
ENDCHAR
STARTCHAR 0141
ENCODING 321
SWIDTH 589 0
DWIDTH 9 0
BBX 8 10 0 0
BITMAP
3C
18
18
1A
1C
18
70
30
30
7F
ENDCHAR
STARTCHAR 0142
ENCODING 322
SWIDTH 261 0
DWIDTH 4 0
BBX 4 10 0 0
BITMAP
70
30
60
60
70
E0
60
C0
C0
E0
ENDCHAR
STARTCHAR 0143
ENCODING 323
SWIDTH 720 0
DWIDTH 11 0
BBX 10 13 0 0
BITMAP
00C0
0100
0000
3CC0
1C40
1640
1640
1740
1340
2380
2180
2180
7080
ENDCHAR
STARTCHAR 0144
ENCODING 324
SWIDTH 523 0
DWIDTH 8 0
BBX 7 10 0 0
BITMAP
06
08
00
EC
76
66
66
CC
CC
CE
ENDCHAR
STARTCHAR 0145
ENCODING 325
SWIDTH 720 0
DWIDTH 11 0
BBX 10 14 0 -4
BITMAP
3CC0
1C40
1640
1640
1740
1340
2380
2180
2180
7080
0000
0600
0200
0C00
ENDCHAR
STARTCHAR 0146
ENCODING 326
SWIDTH 523 0
DWIDTH 8 0
BBX 7 11 0 -4
BITMAP
EC
76
66
66
CC
CC
CE
00
30
10
60
ENDCHAR
STARTCHAR 0147
ENCODING 327
SWIDTH 720 0
DWIDTH 11 0
BBX 10 14 0 0
BITMAP
0440
0280
0100
0000
3CC0
1C40
1640
1640
1740
1340
2380
2180
2180
7080
ENDCHAR
STARTCHAR 0148
ENCODING 328
SWIDTH 523 0
DWIDTH 8 0
BBX 8 11 0 0
BITMAP
11
0A
04
00
EC
76
66
66
CC
CC
CE
ENDCHAR
STARTCHAR 0149
ENCODING 329
SWIDTH 720 0
DWIDTH 11 0
BBX 9 10 0 0
BITMAP
6000
6000
2000
3B00
DD80
1980
1980
3300
3300
3380
ENDCHAR
STARTCHAR 014A
ENCODING 330
SWIDTH 785 0
DWIDTH 12 0
BBX 11 10 0 0
BITMAP
39E0
1E20
1820
1820
1820
1860
3060
3060
3260
7BC0
ENDCHAR
STARTCHAR 014B
ENCODING 331
SWIDTH 523 0
DWIDTH 8 0
BBX 7 10 0 -3
BITMAP
EC
76
66
66
CC
CC
CC
0C
2C
38
ENDCHAR
STARTCHAR 014C
ENCODING 332
SWIDTH 720 0
DWIDTH 11 0
BBX 9 12 1 0
BITMAP
1F00
0000
1E00
3300
6180
C180
C180
C180
C180
C300
6600
3C00
ENDCHAR
STARTCHAR 014D
ENCODING 333
SWIDTH 458 0
DWIDTH 7 0
BBX 7 9 0 0
BITMAP
3E
00
38
6C
CC
CC
CC
D8
70
ENDCHAR
STARTCHAR 014E
ENCODING 334
SWIDTH 720 0
DWIDTH 11 0
BBX 9 13 1 0
BITMAP
0900
0600
0000
1E00
3300
6180
C180
C180
C180
C180
C300
6600
3C00
ENDCHAR
STARTCHAR 014F
ENCODING 335
SWIDTH 458 0
DWIDTH 7 0
BBX 6 10 0 0
BITMAP
48
30
00
38
6C
CC
CC
CC
D8
70
ENDCHAR
STARTCHAR 0150
ENCODING 336
SWIDTH 720 0
DWIDTH 11 0
BBX 10 13 1 0
BITMAP
06C0
0900
0000
1E00
3300
6180
C180
C180
C180
C180
C300
6600
3C00
ENDCHAR
STARTCHAR 0151
ENCODING 337
SWIDTH 458 0
DWIDTH 7 0
BBX 8 10 0 0
BITMAP
1B
24
00
38
6C
CC
CC
CC
D8
70
ENDCHAR
STARTCHAR 0152
ENCODING 338
SWIDTH 916 0
DWIDTH 14 0
BBX 12 10 1 -1
BITMAP
1FF0
3310
6310
C340
C3C0
C340
C600
C620
6620
3FE0
ENDCHAR
STARTCHAR 0153
ENCODING 339
SWIDTH 720 0
DWIDTH 11 0
BBX 10 7 0 0
BITMAP
3B80
6EC0
CCC0
CF00
CC00
DC00
7700
ENDCHAR
STARTCHAR 0154
ENCODING 340
SWIDTH 654 0
DWIDTH 10 0
BBX 8 13 1 0
BITMAP
03
04
00
7F
31
31
31
3F
36
66
66
63
F3
ENDCHAR
STARTCHAR 0155
ENCODING 341
SWIDTH 392 0
DWIDTH 6 0
BBX 6 10 0 0
BITMAP
0C
10
00
EC
74
64
60
C0
C0
C0
ENDCHAR
STARTCHAR 0156
ENCODING 342
SWIDTH 654 0
DWIDTH 10 0
BBX 8 14 1 -4
BITMAP
7F
31
31
31
3F
36
66
66
63
F3
00
18
08
30
ENDCHAR
STARTCHAR 0157
ENCODING 343
SWIDTH 392 0
DWIDTH 6 0
BBX 7 11 -1 -4
BITMAP
76
3A
32
30
60
60
60
00
60
20
C0
ENDCHAR
STARTCHAR 0158
ENCODING 344
SWIDTH 654 0
DWIDTH 10 0
BBX 8 14 1 0
BITMAP
08
05
02
00
7F
31
31
31
3F
36
66
66
63
F3
ENDCHAR
STARTCHAR 0159
ENCODING 345
SWIDTH 392 0
DWIDTH 6 0
BBX 7 11 0 0
BITMAP
22
14
08
00
EC
74
64
60
C0
C0
C0
ENDCHAR
STARTCHAR 015A
ENCODING 346
SWIDTH 523 0
DWIDTH 8 0
BBX 7 13 0 0
BITMAP
06
08
00
3E
62
62
70
38
1C
0C
8C
8C
F8
ENDCHAR
STARTCHAR 015B
ENCODING 347
SWIDTH 392 0
DWIDTH 6 0
BBX 7 10 0 0
BITMAP
06
08
00
3C
64
60
30
18
98
F0
ENDCHAR
STARTCHAR 015C
ENCODING 348
SWIDTH 523 0
DWIDTH 8 0
BBX 7 14 0 0
BITMAP
08
14
22
00
3E
62
62
70
38
1C
0C
8C
8C
F8
ENDCHAR
STARTCHAR 015D
ENCODING 349
SWIDTH 392 0
DWIDTH 6 0
BBX 7 11 0 0
BITMAP
08
14
22
00
3C
64
60
30
18
98
F0
ENDCHAR
STARTCHAR 015E
ENCODING 350
SWIDTH 523 0
DWIDTH 8 0
BBX 7 13 0 -3
BITMAP
3E
62
62
70
38
1C
0C
8C
8C
F8
20
10
60
ENDCHAR
STARTCHAR 015F
ENCODING 351
SWIDTH 392 0
DWIDTH 6 0
BBX 6 10 0 -3
BITMAP
3C
64
60
30
18
98
F0
20
10
60
ENDCHAR
STARTCHAR 0160
ENCODING 352
SWIDTH 523 0
DWIDTH 8 0
BBX 8 14 0 0
BITMAP
11
0A
04
00
3E
62
62
70
38
1C
0C
8C
8C
F8
ENDCHAR
STARTCHAR 0161
ENCODING 353
SWIDTH 392 0
DWIDTH 6 0
BBX 7 11 0 0
BITMAP
22
14
08
00
3C
64
60
30
18
98
F0
ENDCHAR
STARTCHAR 0162
ENCODING 354
SWIDTH 589 0
DWIDTH 9 0
BBX 8 14 1 -4
BITMAP
FF
99
99
18
18
18
30
30
30
78
00
60
20
C0
ENDCHAR
STARTCHAR 0163
ENCODING 355
SWIDTH 261 0
DWIDTH 4 0
BBX 4 13 0 -4
BITMAP
20
60
F0
60
60
C0
C0
C0
60
00
60
20
C0
ENDCHAR
STARTCHAR 0164
ENCODING 356
SWIDTH 589 0
DWIDTH 9 0
BBX 8 14 1 0
BITMAP
11
0A
04
00
FF
99
99
18
18
18
30
30
30
78
ENDCHAR
STARTCHAR 0165
ENCODING 357
SWIDTH 523 0
DWIDTH 8 0
BBX 7 10 0 0
BITMAP
06
22
64
F8
60
60
C0
C0
C0
60
ENDCHAR
STARTCHAR 0166
ENCODING 358
SWIDTH 589 0
DWIDTH 9 0
BBX 8 10 1 0
BITMAP
FF
99
99
18
7E
18
30
30
30
78
ENDCHAR
STARTCHAR 0167
ENCODING 359
SWIDTH 261 0
DWIDTH 4 0
BBX 4 9 0 0
BITMAP
10
30
70
30
30
70
60
60
30
ENDCHAR
STARTCHAR 0168
ENCODING 360
SWIDTH 720 0
DWIDTH 11 0
BBX 10 13 1 0
BITMAP
0640
0980
0000
78C0
3040
3040
3040
6080
6080
6080
6080
6100
3E00
ENDCHAR
STARTCHAR 0169
ENCODING 361
SWIDTH 523 0
DWIDTH 8 0
BBX 8 10 0 0
BITMAP
19
26
00
E6
66
66
66
CC
CC
7E
ENDCHAR
STARTCHAR 016A
ENCODING 362
SWIDTH 720 0
DWIDTH 11 0
BBX 10 12 1 0
BITMAP
0F80
0000
78C0
3040
3040
3040
6080
6080
6080
6080
6100
3E00
ENDCHAR
STARTCHAR 016B
ENCODING 363
SWIDTH 523 0
DWIDTH 8 0
BBX 7 9 0 0
BITMAP
3E
00
E6
66
66
66
CC
CC
7E
ENDCHAR
STARTCHAR 016C
ENCODING 364
SWIDTH 720 0
DWIDTH 11 0
BBX 10 13 1 0
BITMAP
0480
0300
0000
78C0
3040
3040
3040
6080
6080
6080
6080
6100
3E00
ENDCHAR
STARTCHAR 016D
ENCODING 365
SWIDTH 523 0
DWIDTH 8 0
BBX 7 10 0 0
BITMAP
12
0C
00
E6
66
66
66
CC
CC
7E
ENDCHAR
STARTCHAR 016E
ENCODING 366
SWIDTH 720 0
DWIDTH 11 0
BBX 10 14 1 0
BITMAP
0200
0500
0200
0000
78C0
3040
3040
3040
6080
6080
6080
6080
6100
3E00
ENDCHAR
STARTCHAR 016F
ENCODING 367
SWIDTH 523 0
DWIDTH 8 0
BBX 7 11 0 0
BITMAP
08
14
08
00
E6
66
66
66
CC
CC
7E
ENDCHAR
STARTCHAR 0170
ENCODING 368
SWIDTH 720 0
DWIDTH 11 0
BBX 10 13 1 0
BITMAP
06C0
0900
0000
78C0
3040
3040
3040
6080
6080
6080
6080
6100
3E00
ENDCHAR
STARTCHAR 0171
ENCODING 369
SWIDTH 523 0
DWIDTH 8 0
BBX 9 10 0 0
BITMAP
0D80
1200
0000
E600
6600
6600
6600
CC00
CC00
7E00
ENDCHAR
STARTCHAR 0172
ENCODING 370
SWIDTH 720 0
DWIDTH 11 0
BBX 10 13 1 -3
BITMAP
78C0
3040
3040
3040
6080
6080
6080
6080
6100
3E00
0800
0800
0600
ENDCHAR
STARTCHAR 0173
ENCODING 371
SWIDTH 523 0
DWIDTH 8 0
BBX 7 10 0 -3
BITMAP
E6
66
66
66
CC
CC
7E
08
08
06
ENDCHAR
STARTCHAR 0174
ENCODING 372
SWIDTH 850 0
DWIDTH 13 0
BBX 12 14 1 0
BITMAP
0200
0500
0880
0000
F070
6220
6640
6640
6E80
6E80
7700
7700
2600
2200
ENDCHAR
STARTCHAR 0175
ENCODING 373
SWIDTH 654 0
DWIDTH 10 0
BBX 9 11 0 0
BITMAP
0400
0A00
1100
0000
E180
6480
6D00
7500
3600
3600
2400
ENDCHAR
STARTCHAR 0176
ENCODING 374
SWIDTH 654 0
DWIDTH 10 0
BBX 8 14 2 0
BITMAP
04
0A
11
00
F3
61
32
34
34
18
18
30
30
FC
ENDCHAR
STARTCHAR 0177
ENCODING 375
SWIDTH 458 0
DWIDTH 7 0
BBX 8 14 -1 -3
BITMAP
02
05
08
00
39
18
19
1A
1C
18
18
10
20
C0
ENDCHAR
STARTCHAR 0178
ENCODING 376
SWIDTH 654 0
DWIDTH 10 0
BBX 8 13 2 0
BITMAP
1B
1B
00
F3
61
32
34
34
18
18
30
30
FC
ENDCHAR
STARTCHAR 0179
ENCODING 377
SWIDTH 589 0
DWIDTH 9 0
BBX 9 13 0 0
BITMAP
0300
0400
0000
3F80
2300
2600
0600
0C00
1800
3000
3100
6100
FE00
ENDCHAR
STARTCHAR 017A
ENCODING 378
SWIDTH 392 0
DWIDTH 6 0
BBX 6 10 0 0
BITMAP
0C
10
00
7C
58
18
30
60
68
F8
ENDCHAR
STARTCHAR 017B
ENCODING 379
SWIDTH 589 0
DWIDTH 9 0
BBX 9 13 0 0
BITMAP
0600
0600
0000
3F80
2300
2600
0600
0C00
1800
3000
3100
6100
FE00
ENDCHAR
STARTCHAR 017C
ENCODING 380
SWIDTH 392 0
DWIDTH 6 0
BBX 6 10 0 0
BITMAP
18
18
00
7C
58
18
30
60
68
F8
ENDCHAR
STARTCHAR 017D
ENCODING 381
SWIDTH 589 0
DWIDTH 9 0
BBX 9 14 0 0
BITMAP
0880
0500
0200
0000
3F80
2300
2600
0600
0C00
1800
3000
3100
6100
FE00
ENDCHAR
STARTCHAR 017E
ENCODING 382
SWIDTH 392 0
DWIDTH 6 0
BBX 7 11 0 0
BITMAP
22
14
08
00
7C
58
18
30
60
68
F8
ENDCHAR
STARTCHAR 017F
ENCODING 383
SWIDTH 327 0
DWIDTH 5 0
BBX 6 13 0 -3
BITMAP
1C
34
30
30
30
60
60
60
60
60
C0
C0
C0
ENDCHAR
STARTCHAR 0192
ENCODING 402
SWIDTH 523 0
DWIDTH 8 0
BBX 6 12 2 -2
BITMAP
1C
34
30
60
F8
60
60
60
60
C0
C0
C0
ENDCHAR
STARTCHAR 01FA
ENCODING 506
SWIDTH 654 0
DWIDTH 10 0
BBX 11 15 -1 0
BITMAP
00C0
0080
0100
0100
0280
0300
0300
0580
0980
0980
1180
1F80
20C0
40C0
E1E0
ENDCHAR
STARTCHAR 01FB
ENCODING 507
SWIDTH 523 0
DWIDTH 8 0
BBX 7 13 0 0
BITMAP
06
08
08
14
08
00
3E
66
C6
CC
CC
CC
7E
ENDCHAR
STARTCHAR 01FC
ENCODING 508
SWIDTH 916 0
DWIDTH 14 0
BBX 14 13 -1 0
BITMAP
0018
0020
0000
07FC
0384
0584
0590
09F0
1190
1F00
2308
4308
E7F8
ENDCHAR
STARTCHAR 01FD
ENCODING 509
SWIDTH 720 0
DWIDTH 11 0
BBX 10 10 0 0
BITMAP
0300
0400
0000
3F80
66C0
CCC0
CF00
CC00
CC00
7700
ENDCHAR
STARTCHAR 01FE
ENCODING 510
SWIDTH 720 0
DWIDTH 11 0
BBX 8 13 2 -1
BITMAP
03
04
00
1E
33
63
C5
C9
C9
D1
E3
66
BC
ENDCHAR
STARTCHAR 01FF
ENCODING 511
SWIDTH 523 0
DWIDTH 8 0
BBX 7 10 0 -1
BITMAP
02
04
00
1E
32
66
6A
72
66
7C
ENDCHAR
STARTCHAR 02C6
ENCODING 710
SWIDTH 327 0
DWIDTH 5 0
BBX 5 3 1 8
BITMAP
20
50
88
ENDCHAR
STARTCHAR 02C7
ENCODING 711
SWIDTH 327 0
DWIDTH 5 0
BBX 5 3 1 8
BITMAP
88
50
20
ENDCHAR
STARTCHAR 02C9
ENCODING 713
SWIDTH 327 0
DWIDTH 5 0
BBX 5 1 1 9
BITMAP
F8
ENDCHAR
STARTCHAR 02D8
ENCODING 728
SWIDTH 327 0
DWIDTH 5 0
BBX 4 2 1 8
BITMAP
40
30
ENDCHAR
STARTCHAR 02D9
ENCODING 729
SWIDTH 327 0
DWIDTH 5 0
BBX 2 2 2 8
BITMAP
C0
C0
ENDCHAR
STARTCHAR 02DA
ENCODING 730
SWIDTH 327 0
DWIDTH 5 0
BBX 3 3 2 8
BITMAP
40
A0
40
ENDCHAR
STARTCHAR 02DB
ENCODING 731
SWIDTH 327 0
DWIDTH 5 0
BBX 3 3 0 -3
BITMAP
80
80
60
ENDCHAR
STARTCHAR 02DC
ENCODING 732
SWIDTH 327 0
DWIDTH 5 0
BBX 6 2 1 8
BITMAP
64
98
ENDCHAR
STARTCHAR 02DD
ENCODING 733
SWIDTH 327 0
DWIDTH 5 0
BBX 6 2 1 8
BITMAP
6C
90
ENDCHAR
STARTCHAR 037E
ENCODING 894
SWIDTH 327 0
DWIDTH 5 0
BBX 4 10 -1 -3
BITMAP
30
30
00
00
00
60
60
20
40
80
ENDCHAR
STARTCHAR 0384
ENCODING 900
SWIDTH 327 0
DWIDTH 5 0
BBX 3 2 2 8
BITMAP
60
C0
ENDCHAR
STARTCHAR 0385
ENCODING 901
SWIDTH 327 0
DWIDTH 5 0
BBX 4 2 0 8
BITMAP
20
D0
ENDCHAR
STARTCHAR 0386
ENCODING 902
SWIDTH 654 0
DWIDTH 10 0
BBX 11 10 -1 0
BITMAP
1B00
3300
0580
0980
0980
1180
1F80
20C0
40C0
E1E0
ENDCHAR
STARTCHAR 0387
ENCODING 903
SWIDTH 327 0
DWIDTH 5 0
BBX 2 2 2 4
BITMAP
C0
C0
ENDCHAR
STARTCHAR 0388
ENCODING 904
SWIDTH 785 0
DWIDTH 12 0
BBX 11 10 0 0
BITMAP
7FE0
CC20
0C20
0C80
0F80
0C80
1800
1840
1840
3FC0
ENDCHAR
STARTCHAR 0389
ENCODING 905
SWIDTH 850 0
DWIDTH 13 0
BBX 13 10 -1 0
BITMAP
7E78
CC30
0C30
0C30
0FF0
0C30
1860
1860
1860
3CF0
ENDCHAR
STARTCHAR 038A
ENCODING 906
SWIDTH 523 0
DWIDTH 8 0
BBX 7 10 0 0
BITMAP
7E
CC
0C
0C
0C
0C
18
18
18
3C
ENDCHAR
STARTCHAR 038C
ENCODING 908
SWIDTH 720 0
DWIDTH 11 0
BBX 10 10 0 0
BITMAP
6F00
D980
30C0
60C0
60C0
60C0
60C0
6180
3300
1E00
ENDCHAR
STARTCHAR 038E
ENCODING 910
SWIDTH 720 0
DWIDTH 11 0
BBX 12 10 0 0
BITMAP
7E70
CC20
0640
0680
0680
0300
0300
0600
0600
1F80
ENDCHAR
STARTCHAR 038F
ENCODING 911
SWIDTH 785 0
DWIDTH 12 0
BBX 11 10 0 0
BITMAP
6FC0
D860
3060
3060
3060
30C0
1980
4A40
7BC0
7BC0
ENDCHAR
STARTCHAR 0390
ENCODING 912
SWIDTH 261 0
DWIDTH 4 0
BBX 4 10 0 0
BITMAP
20
D0
00
E0
60
60
60
C0
C0
E0
ENDCHAR
STARTCHAR 0391
ENCODING 913
SWIDTH 654 0
DWIDTH 10 0
BBX 11 10 -1 0
BITMAP
0300
0300
0580
0980
0980
1180
1F80
20C0
40C0
E1E0
ENDCHAR
STARTCHAR 0392
ENCODING 914
SWIDTH 654 0
DWIDTH 10 0
BBX 8 10 1 -1
BITMAP
7F
31
31
31
3E
31
61
61
63
FE
ENDCHAR
STARTCHAR 0393
ENCODING 915
SWIDTH 589 0
DWIDTH 9 0
BBX 8 10 1 0
BITMAP
7F
30
30
30
30
30
60
60
60
F0
ENDCHAR
STARTCHAR 0394
ENCODING 916
SWIDTH 589 0
DWIDTH 9 0
BBX 9 10 -1 0
BITMAP
0200
0600
0B00
0B00
1300
2300
2300
4180
4180
FF80
ENDCHAR
STARTCHAR 0395
ENCODING 917
SWIDTH 654 0
DWIDTH 10 0
BBX 8 10 1 0
BITMAP
7F
30
30
32
3E
32
60
61
61
FF
ENDCHAR
STARTCHAR 0396
ENCODING 918
SWIDTH 589 0
DWIDTH 9 0
BBX 9 10 0 0
BITMAP
3F80
2300
2600
0600
0C00
1800
3000
3100
6100
FE00
ENDCHAR
STARTCHAR 0397
ENCODING 919
SWIDTH 785 0
DWIDTH 12 0
BBX 11 10 0 0
BITMAP
3CE0
1860
1860
1860
1FE0
1860
30C0
30C0
30C0
79E0
ENDCHAR
STARTCHAR 0398
ENCODING 920
SWIDTH 720 0
DWIDTH 11 0
BBX 9 10 1 0
BITMAP
1E00
3300
6180
D580
DD80
D580
C180
C300
6600
3C00
ENDCHAR
STARTCHAR 0399
ENCODING 921
SWIDTH 392 0
DWIDTH 6 0
BBX 5 10 0 0
BITMAP
38
18
18
18
18
18
30
30
30
78
ENDCHAR
STARTCHAR 039A
ENCODING 922
SWIDTH 654 0
DWIDTH 10 0
BBX 10 10 0 0
BITMAP
3CC0
1880
1900
1A00
1E00
1B00
3300
3300
3180
79C0
ENDCHAR
STARTCHAR 039B
ENCODING 923
SWIDTH 654 0
DWIDTH 10 0
BBX 10 10 -1 0
BITMAP
0300
0300
0700
0B00
0B00
1180
2180
2180
4180
E3C0
ENDCHAR
STARTCHAR 039C
ENCODING 924
SWIDTH 850 0
DWIDTH 13 0
BBX 12 10 0 0
BITMAP
3830
1870
1C70
1CB0
2CB0
2D30
2560
2660
2460
74F0
ENDCHAR
STARTCHAR 039D
ENCODING 925
SWIDTH 720 0
DWIDTH 11 0
BBX 10 10 0 0
BITMAP
3CC0
1C40
1640
1640
1740
1340
2380
2180
2180
7080
ENDCHAR
STARTCHAR 039E
ENCODING 926
SWIDTH 654 0
DWIDTH 10 0
BBX 10 10 0 0
BITMAP
3FC0
7FC0
4040
1100
1F00
1100
0000
8080
FF80
FF00
ENDCHAR
STARTCHAR 039F
ENCODING 927
SWIDTH 720 0
DWIDTH 11 0
BBX 9 10 1 0
BITMAP
1E00
3300
6180
C180
C180
C180
C180
C300
6600
3C00
ENDCHAR
STARTCHAR 03A0
ENCODING 928
SWIDTH 785 0
DWIDTH 12 0
BBX 12 10 0 0
BITMAP
3FF0
1860
1860
1860
1860
1860
30C0
30C0
30C0
79E0
ENDCHAR
STARTCHAR 03A1
ENCODING 929
SWIDTH 589 0
DWIDTH 9 0
BBX 8 10 1 0
BITMAP
7F
31
31
31
33
3E
60
60
60
F0
ENDCHAR
STARTCHAR 03A3
ENCODING 931
SWIDTH 589 0
DWIDTH 9 0
BBX 9 10 0 0
BITMAP
3F80
3080
1880
1800
0C00
0800
1000
2100
7F00
FE00
ENDCHAR
STARTCHAR 03A4
ENCODING 932
SWIDTH 589 0
DWIDTH 9 0
BBX 8 10 1 0
BITMAP
FF
99
99
18
18
18
30
30
30
78
ENDCHAR
STARTCHAR 03A5
ENCODING 933
SWIDTH 654 0
DWIDTH 10 0
BBX 8 10 2 0
BITMAP
F3
61
32
34
34
18
18
30
30
FC
ENDCHAR
STARTCHAR 03A6
ENCODING 934
SWIDTH 785 0
DWIDTH 12 0
BBX 11 10 0 0
BITMAP
0F00
0600
3FC0
6660
C660
CC60
CCC0
7F80
0C00
1E00
ENDCHAR
STARTCHAR 03A7
ENCODING 935
SWIDTH 654 0
DWIDTH 10 0
BBX 10 10 0 0
BITMAP
3CC0
1840
0C80
0D00
0600
0600
0B00
1300
2180
73C0
ENDCHAR
STARTCHAR 03A8
ENCODING 936
SWIDTH 785 0
DWIDTH 12 0
BBX 11 10 1 0
BITMAP
7760
3660
6660
6660
76C0
3F80
0C00
0C00
0C00
1E00
ENDCHAR
STARTCHAR 03A9
ENCODING 937
SWIDTH 720 0
DWIDTH 11 0
BBX 10 10 0 0
BITMAP
1F80
30C0
60C0
60C0
60C0
6180
3300
9480
F780
F780
ENDCHAR
STARTCHAR 03AA
ENCODING 938
SWIDTH 392 0
DWIDTH 6 0
BBX 6 13 0 0
BITMAP
34
34
00
3C
18
18
18
18
18
30
30
30
78
ENDCHAR
STARTCHAR 03AB
ENCODING 939
SWIDTH 654 0
DWIDTH 10 0
BBX 8 13 2 0
BITMAP
1B
1B
00
F3
61
32
34
34
18
18
30
30
FC
ENDCHAR
STARTCHAR 03AC
ENCODING 940
SWIDTH 523 0
DWIDTH 8 0
BBX 8 10 0 0
BITMAP
0C
18
00
3B
6E
CC
C8
CC
DC
66
ENDCHAR
STARTCHAR 03AD
ENCODING 941
SWIDTH 392 0
DWIDTH 6 0
BBX 6 10 0 0
BITMAP
0C
18
00
3C
64
60
38
C0
C8
70
ENDCHAR
STARTCHAR 03AE
ENCODING 942
SWIDTH 523 0
DWIDTH 8 0
BBX 7 13 0 -3
BITMAP
06
0C
00
EC
76
66
66
CC
CC
CC
0C
0C
0C
ENDCHAR
STARTCHAR 03AF
ENCODING 943
SWIDTH 261 0
DWIDTH 4 0
BBX 4 10 0 0
BITMAP
30
60
00
E0
60
60
60
C0
C0
E0
ENDCHAR
STARTCHAR 03B0
ENCODING 944
SWIDTH 458 0
DWIDTH 7 0
BBX 6 10 0 0
BITMAP
08
34
00
E8
6C
6C
CC
CC
D8
70
ENDCHAR
STARTCHAR 03B1
ENCODING 945
SWIDTH 523 0
DWIDTH 8 0
BBX 8 7 0 0
BITMAP
3B
6E
CC
C8
CC
DC
66
ENDCHAR
STARTCHAR 03B2
ENCODING 946
SWIDTH 523 0
DWIDTH 8 0
BBX 8 13 0 -3
BITMAP
0F
19
31
33
36
33
33
63
66
7E
60
60
60
ENDCHAR
STARTCHAR 03B3
ENCODING 947
SWIDTH 392 0
DWIDTH 6 0
BBX 6 10 0 -3
BITMAP
CC
C4
68
68
70
70
60
60
C0
C0
ENDCHAR
STARTCHAR 03B4
ENCODING 948
SWIDTH 523 0
DWIDTH 8 0
BBX 7 10 0 0
BITMAP
1E
32
30
18
3C
66
C6
C6
CC
78
ENDCHAR
STARTCHAR 03B5
ENCODING 949
SWIDTH 392 0
DWIDTH 6 0
BBX 6 7 0 0
BITMAP
3C
64
60
38
C0
C8
70
ENDCHAR
STARTCHAR 03B6
ENCODING 950
SWIDTH 458 0
DWIDTH 7 0
BBX 7 13 0 -3
BITMAP
3E
04
18
30
60
60
C0
C0
E0
70
18
18
30
ENDCHAR
STARTCHAR 03B7
ENCODING 951
SWIDTH 523 0
DWIDTH 8 0
BBX 7 10 0 -3
BITMAP
EC
76
66
66
CC
CC
CC
0C
0C
0C
ENDCHAR
STARTCHAR 03B8
ENCODING 952
SWIDTH 523 0
DWIDTH 8 0
BBX 7 10 0 0
BITMAP
3C
66
66
C6
FE
C6
C6
CC
CC
78
ENDCHAR
STARTCHAR 03B9
ENCODING 953
SWIDTH 261 0
DWIDTH 4 0
BBX 3 7 0 0
BITMAP
E0
60
60
60
C0
C0
E0
ENDCHAR
STARTCHAR 03BA
ENCODING 954
SWIDTH 523 0
DWIDTH 8 0
BBX 8 7 0 0
BITMAP
E3
64
68
78
CC
CC
C6
ENDCHAR
STARTCHAR 03BB
ENCODING 955
SWIDTH 458 0
DWIDTH 7 0
BBX 7 10 -1 0
BITMAP
18
14
04
04
0C
1C
1A
32
32
62
ENDCHAR
STARTCHAR 03BC
ENCODING 956
SWIDTH 523 0
DWIDTH 8 0
BBX 8 10 -1 -3
BITMAP
39
19
19
19
33
37
3B
30
60
60
ENDCHAR
STARTCHAR 03BD
ENCODING 957
SWIDTH 458 0
DWIDTH 7 0
BBX 7 7 0 0
BITMAP
E6
62
64
68
70
60
40
ENDCHAR
STARTCHAR 03BE
ENCODING 958
SWIDTH 458 0
DWIDTH 7 0
BBX 7 13 0 -3
BITMAP
3E
18
30
30
0C
70
C0
C0
F0
78
0C
0C
18
ENDCHAR
STARTCHAR 03BF
ENCODING 959
SWIDTH 458 0
DWIDTH 7 0
BBX 6 7 0 0
BITMAP
38
6C
CC
CC
CC
D8
70
ENDCHAR
STARTCHAR 03C0
ENCODING 960
SWIDTH 523 0
DWIDTH 8 0
BBX 9 7 0 0
BITMAP
FF80
A600
2600
2600
4C00
4C00
CE00
ENDCHAR
STARTCHAR 03C1
ENCODING 961
SWIDTH 523 0
DWIDTH 8 0
BBX 7 10 0 -3
BITMAP
1E
32
32
32
62
66
7C
60
60
60
ENDCHAR
STARTCHAR 03C2
ENCODING 962
SWIDTH 458 0
DWIDTH 7 0
BBX 6 10 0 -3
BITMAP
3C
64
C0
C0
C0
E0
70
18
18
30
ENDCHAR
STARTCHAR 03C3
ENCODING 963
SWIDTH 523 0
DWIDTH 8 0
BBX 8 8 0 0
BITMAP
01
3F
66
C6
C6
C6
CC
78
ENDCHAR
STARTCHAR 03C4
ENCODING 964
SWIDTH 458 0
DWIDTH 7 0
BBX 6 7 0 0
BITMAP
FC
B0
30
30
60
60
70
ENDCHAR
STARTCHAR 03C5
ENCODING 965
SWIDTH 458 0
DWIDTH 7 0
BBX 6 7 0 0
BITMAP
E8
6C
6C
CC
CC
D8
70
ENDCHAR
STARTCHAR 03C6
ENCODING 966
SWIDTH 589 0
DWIDTH 9 0
BBX 8 10 0 -3
BITMAP
26
4B
D3
D3
D3
D6
7C
10
20
20
ENDCHAR
STARTCHAR 03C7
ENCODING 967
SWIDTH 458 0
DWIDTH 7 0
BBX 9 10 -2 -3
BITMAP
3180
1300
1600
1600
0C00
1800
3400
3400
6400
C600
ENDCHAR
STARTCHAR 03C8
ENCODING 968
SWIDTH 654 0
DWIDTH 10 0
BBX 9 12 1 -3
BITMAP
0400
0800
EB80
6B00
6B00
6B00
D300
D600
7C00
1000
1000
1000
ENDCHAR
STARTCHAR 03C9
ENCODING 969
SWIDTH 720 0
DWIDTH 11 0
BBX 10 7 0 0
BITMAP
3180
60C0
CCC0
CCC0
C8C0
C980
7700
ENDCHAR
STARTCHAR 03CA
ENCODING 970
SWIDTH 261 0
DWIDTH 4 0
BBX 5 10 0 0
BITMAP
D8
D8
00
E0
60
60
60
C0
C0
E0
ENDCHAR
STARTCHAR 03CB
ENCODING 971
SWIDTH 458 0
DWIDTH 7 0
BBX 7 10 0 0
BITMAP
36
36
00
E8
6C
6C
CC
CC
D8
70
ENDCHAR
STARTCHAR 03CC
ENCODING 972
SWIDTH 458 0
DWIDTH 7 0
BBX 6 10 0 0
BITMAP
0C
18
00
38
6C
CC
CC
CC
D8
70
ENDCHAR
STARTCHAR 03CD
ENCODING 973
SWIDTH 458 0
DWIDTH 7 0
BBX 6 10 0 0
BITMAP
0C
18
00
E8
6C
6C
CC
CC
D8
70
ENDCHAR
STARTCHAR 03CE
ENCODING 974
SWIDTH 720 0
DWIDTH 11 0
BBX 10 10 0 0
BITMAP
0180
0300
0000
3180
60C0
CCC0
CCC0
C8C0
C980
7700
ENDCHAR
STARTCHAR 0401
ENCODING 1025
SWIDTH 654 0
DWIDTH 10 0
BBX 8 13 1 0
BITMAP
1B
1B
00
7F
30
30
32
3E
32
60
61
61
FF
ENDCHAR
STARTCHAR 0402
ENCODING 1026
SWIDTH 785 0
DWIDTH 12 0
BBX 10 13 1 -3
BITMAP
FF80
9880
9880
1800
1F80
18C0
30C0
30C0
30C0
7980
0180
0980
0F00
ENDCHAR
STARTCHAR 0403
ENCODING 1027
SWIDTH 589 0
DWIDTH 9 0
BBX 8 13 1 0
BITMAP
03
04
00
7F
30
30
30
30
30
60
60
60
F0
ENDCHAR
STARTCHAR 0404
ENCODING 1028
SWIDTH 654 0
DWIDTH 10 0
BBX 9 10 1 0
BITMAP
1F80
3080
6080
C000
FC00
C000
C000
C100
6100
3E00
ENDCHAR
STARTCHAR 0405
ENCODING 1029
SWIDTH 523 0
DWIDTH 8 0
BBX 7 10 0 0
BITMAP
3E
62
62
70
38
1C
0C
8C
8C
F8
ENDCHAR
STARTCHAR 0406
ENCODING 1030
SWIDTH 392 0
DWIDTH 6 0
BBX 5 10 0 0
BITMAP
38
18
18
18
18
18
30
30
30
78
ENDCHAR
STARTCHAR 0407
ENCODING 1031
SWIDTH 392 0
DWIDTH 6 0
BBX 6 13 0 0
BITMAP
34
34
00
3C
18
18
18
18
18
30
30
30
78
ENDCHAR
STARTCHAR 0408
ENCODING 1032
SWIDTH 523 0
DWIDTH 8 0
BBX 7 10 0 0
BITMAP
1E
0C
0C
0C
0C
0C
18
18
98
F0
ENDCHAR
STARTCHAR 0409
ENCODING 1033
SWIDTH 916 0
DWIDTH 14 0
BBX 14 10 -1 0
BITMAP
0FE0
04C0
04C0
08C0
08F8
08CC
118C
118C
A198
C3F0
ENDCHAR
STARTCHAR 040A
ENCODING 1034
SWIDTH 981 0
DWIDTH 15 0
BBX 14 10 0 0
BITMAP
3CF0
1860
1860
1860
1FFC
1864
30C4
30C4
30CC
79F8
ENDCHAR
STARTCHAR 040B
ENCODING 1035
SWIDTH 785 0
DWIDTH 12 0
BBX 11 10 1 0
BITMAP
FF80
9880
9880
1800
1F80
18C0
30C0
30C0
30C0
7BE0
ENDCHAR
STARTCHAR 040C
ENCODING 1036
SWIDTH 654 0
DWIDTH 10 0
BBX 10 13 0 0
BITMAP
00C0
0100
0000
3CC0
1880
1900
1A00
1E00
1B00
3300
3300
3180
79C0
ENDCHAR
STARTCHAR 040E
ENCODING 1038
SWIDTH 654 0
DWIDTH 10 0
BBX 10 13 0 0
BITMAP
0640
0380
0000
78C0
3040
1880
1900
0D00
0E00
0400
0400
4800
7000
ENDCHAR
STARTCHAR 040F
ENCODING 1039
SWIDTH 785 0
DWIDTH 12 0
BBX 11 13 0 -3
BITMAP
3CE0
1860
1860
1860
1860
1860
30C0
30C0
30C0
7FE0
0600
0400
0400
ENDCHAR
STARTCHAR 0410
ENCODING 1040
SWIDTH 654 0
DWIDTH 10 0
BBX 11 10 -1 0
BITMAP
0300
0300
0580
0980
0980
1180
1F80
20C0
40C0
E1E0
ENDCHAR
STARTCHAR 0411
ENCODING 1041
SWIDTH 654 0
DWIDTH 10 0
BBX 8 10 1 0
BITMAP
7F
30
30
30
3E
33
63
63
66
FC
ENDCHAR
STARTCHAR 0412
ENCODING 1042
SWIDTH 654 0
DWIDTH 10 0
BBX 8 10 1 -1
BITMAP
7F
31
31
31
3E
31
61
61
63
FE
ENDCHAR
STARTCHAR 0413
ENCODING 1043
SWIDTH 589 0
DWIDTH 9 0
BBX 8 10 1 0
BITMAP
7F
30
30
30
30
30
60
60
60
F0
ENDCHAR
STARTCHAR 0414
ENCODING 1044
SWIDTH 654 0
DWIDTH 10 0
BBX 10 13 -1 -3
BITMAP
0FC0
0580
0580
0980
0980
1180
1300
2300
4300
FF80
8080
8080
8080
ENDCHAR
STARTCHAR 0415
ENCODING 1045
SWIDTH 654 0
DWIDTH 10 0
BBX 8 10 1 0
BITMAP
7F
30
30
32
3E
32
60
61
61
FF
ENDCHAR
STARTCHAR 0416
ENCODING 1046
SWIDTH 916 0
DWIDTH 14 0
BBX 15 10 -1 0
BITMAP
3BCE
1188
0990
05A0
07E0
0DB0
1B30
3330
6318
E79C
ENDCHAR
STARTCHAR 0417
ENCODING 1047
SWIDTH 523 0
DWIDTH 8 0
BBX 7 10 0 0
BITMAP
3C
26
06
06
38
0C
0C
8C
8C
F8
ENDCHAR
STARTCHAR 0418
ENCODING 1048
SWIDTH 785 0
DWIDTH 12 0
BBX 11 10 0 0
BITMAP
3CE0
1860
18E0
1960
1A60
1A60
34C0
38C0
30C0
79E0
ENDCHAR
STARTCHAR 0419
ENCODING 1049
SWIDTH 785 0
DWIDTH 12 0
BBX 11 13 0 0
BITMAP
0320
01C0
0000
3CE0
1860
18E0
1960
1A60
1A60
34C0
38C0
30C0
79E0
ENDCHAR
STARTCHAR 041A
ENCODING 1050
SWIDTH 654 0
DWIDTH 10 0
BBX 10 10 0 0
BITMAP
3CC0
1880
1900
1A00
1E00
1B00
3300
3300
3180
79C0
ENDCHAR
STARTCHAR 041B
ENCODING 1051
SWIDTH 654 0
DWIDTH 10 0
BBX 11 10 -1 0
BITMAP
0FE0
0580
0580
0980
0980
0980
1300
1300
A300
C780
ENDCHAR
STARTCHAR 041C
ENCODING 1052
SWIDTH 850 0
DWIDTH 13 0
BBX 12 10 0 0
BITMAP
3830
1870
1C70
1CB0
2CB0
2D30
2560
2660
2460
74F0
ENDCHAR
STARTCHAR 041D
ENCODING 1053
SWIDTH 785 0
DWIDTH 12 0
BBX 11 10 0 0
BITMAP
3CE0
1860
1860
1860
1FE0
1860
30C0
30C0
30C0
79E0
ENDCHAR
STARTCHAR 041E
ENCODING 1054
SWIDTH 720 0
DWIDTH 11 0
BBX 9 10 1 0
BITMAP
1E00
3300
6180
C180
C180
C180
C180
C300
6600
3C00
ENDCHAR
STARTCHAR 041F
ENCODING 1055
SWIDTH 785 0
DWIDTH 12 0
BBX 12 10 0 0
BITMAP
3FF0
1860
1860
1860
1860
1860
30C0
30C0
30C0
79E0
ENDCHAR
STARTCHAR 0420
ENCODING 1056
SWIDTH 589 0
DWIDTH 9 0
BBX 8 10 1 0
BITMAP
7F
31
31
31
33
3E
60
60
60
F0
ENDCHAR
STARTCHAR 0421
ENCODING 1057
SWIDTH 654 0
DWIDTH 10 0
BBX 9 10 1 0
BITMAP
1F80
3080
6080
C000
C000
C000
C000
C100
6100
3E00
ENDCHAR
STARTCHAR 0422
ENCODING 1058
SWIDTH 589 0
DWIDTH 9 0
BBX 8 10 1 0
BITMAP
FF
99
99
18
18
18
30
30
30
78
ENDCHAR
STARTCHAR 0423
ENCODING 1059
SWIDTH 654 0
DWIDTH 10 0
BBX 10 10 0 0
BITMAP
78C0
3040
1880
1900
0D00
0E00
0400
0400
4800
7000
ENDCHAR
STARTCHAR 0424
ENCODING 1060
SWIDTH 850 0
DWIDTH 13 0
BBX 11 10 1 0
BITMAP
0F00
0600
3FC0
6660
C660
C660
CCC0
7F80
0C00
1E00
ENDCHAR
STARTCHAR 0425
ENCODING 1061
SWIDTH 654 0
DWIDTH 10 0
BBX 10 10 0 0
BITMAP
3CC0
1840
0C80
0D00
0600
0600
0B00
1300
2180
73C0
ENDCHAR
STARTCHAR 0426
ENCODING 1062
SWIDTH 785 0
DWIDTH 12 0
BBX 11 13 0 -3
BITMAP
3CE0
1860
1860
1860
1860
1860
30C0
30C0
30C0
7FE0
0020
0020
0020
ENDCHAR
STARTCHAR 0427
ENCODING 1063
SWIDTH 720 0
DWIDTH 11 0
BBX 9 10 1 0
BITMAP
F780
6300
6300
6300
6300
3F00
0600
0600
0600
0F00
ENDCHAR
STARTCHAR 0428
ENCODING 1064
SWIDTH 1112 0
DWIDTH 17 0
BBX 16 10 0 0
BITMAP
79E7
30C3
30C3
30C3
30C3
30C3
6186
6186
6186
FFFF
ENDCHAR
STARTCHAR 0429
ENCODING 1065
SWIDTH 1112 0
DWIDTH 17 0
BBX 16 13 0 -3
BITMAP
79E7
30C3
30C3
30C3
30C3
30C3
6186
6186
6186
FFFF
0001
0001
0001
ENDCHAR
STARTCHAR 042A
ENCODING 1066
SWIDTH 720 0
DWIDTH 11 0
BBX 9 10 1 0
BITMAP
FE00
9800
9800
1800
1F00
1980
3180
3180
3300
7E00
ENDCHAR
STARTCHAR 042B
ENCODING 1067
SWIDTH 981 0
DWIDTH 15 0
BBX 15 10 0 0
BITMAP
3E1E
180C
180C
180C
1F8C
18CC
30D8
30D8
3198
7F3C
ENDCHAR
STARTCHAR 042C
ENCODING 1068
SWIDTH 654 0
DWIDTH 10 0
BBX 8 10 1 0
BITMAP
7C
30
30
30
3F
31
61
61
63
FE
ENDCHAR
STARTCHAR 042D
ENCODING 1069
SWIDTH 654 0
DWIDTH 10 0
BBX 8 10 1 0
BITMAP
7C
46
43
03
1F
03
03
86
8C
F8
ENDCHAR
STARTCHAR 042E
ENCODING 1070
SWIDTH 1047 0
DWIDTH 16 0
BBX 15 10 0 0
BITMAP
3C3C
1866
18C2
1982
1F82
1982
3186
3186
30CC
7878
ENDCHAR
STARTCHAR 042F
ENCODING 1071
SWIDTH 654 0
DWIDTH 10 0
BBX 10 10 -1 0
BITMAP
0FC0
1980
3180
3180
1980
0F80
1B00
3300
6300
E780
ENDCHAR
STARTCHAR 0430
ENCODING 1072
SWIDTH 523 0
DWIDTH 8 0
BBX 7 7 0 0
BITMAP
3E
66
C6
CC
CC
CC
7E
ENDCHAR
STARTCHAR 0431
ENCODING 1073
SWIDTH 458 0
DWIDTH 7 0
BBX 7 10 0 0
BITMAP
02
3C
40
78
AC
CC
CC
CC
D8
70
ENDCHAR
STARTCHAR 0432
ENCODING 1074
SWIDTH 458 0
DWIDTH 7 0
BBX 6 7 0 0
BITMAP
38
6C
C8
F8
CC
CC
78
ENDCHAR
STARTCHAR 0433
ENCODING 1075
SWIDTH 392 0
DWIDTH 6 0
BBX 5 7 0 0
BITMAP
30
58
18
70
C0
D0
60
ENDCHAR
STARTCHAR 0434
ENCODING 1076
SWIDTH 458 0
DWIDTH 7 0
BBX 6 10 0 0
BITMAP
70
18
0C
3C
6C
CC
CC
CC
D8
70
ENDCHAR
STARTCHAR 0435
ENCODING 1077
SWIDTH 458 0
DWIDTH 7 0
BBX 6 7 0 0
BITMAP
38
6C
CC
F0
C0
C8
70
ENDCHAR
STARTCHAR 0436
ENCODING 1078
SWIDTH 916 0
DWIDTH 14 0
BBX 13 7 0 0
BITMAP
3338
5B68
1B60
1FC0
36C0
B6D0
E660
ENDCHAR
STARTCHAR 0437
ENCODING 1079
SWIDTH 392 0
DWIDTH 6 0
BBX 5 7 0 0
BITMAP
70
58
18
60
30
30
E0
ENDCHAR
STARTCHAR 0438
ENCODING 1080
SWIDTH 523 0
DWIDTH 8 0
BBX 7 7 0 0
BITMAP
E6
66
66
66
CC
CC
7E
ENDCHAR
STARTCHAR 0439
ENCODING 1081
SWIDTH 523 0
DWIDTH 8 0
BBX 7 10 0 0
BITMAP
32
1C
00
E6
66
66
66
CC
CC
7E
ENDCHAR
STARTCHAR 043A
ENCODING 1082
SWIDTH 523 0
DWIDTH 8 0
BBX 8 7 0 0
BITMAP
EF
64
68
78
CC
CC
C6
ENDCHAR
STARTCHAR 043B
ENCODING 1083
SWIDTH 523 0
DWIDTH 8 0
BBX 8 7 -1 0
BITMAP
0F
13
13
23
26
A6
C7
ENDCHAR
STARTCHAR 043C
ENCODING 1084
SWIDTH 654 0
DWIDTH 10 0
BBX 10 7 -1 0
BITMAP
38C0
19C0
29C0
2AC0
2D80
2D80
C9C0
ENDCHAR
STARTCHAR 043D
ENCODING 1085
SWIDTH 523 0
DWIDTH 8 0
BBX 7 7 0 0
BITMAP
E6
66
66
7C
CC
CC
CE
ENDCHAR
STARTCHAR 043E
ENCODING 1086
SWIDTH 458 0
DWIDTH 7 0
BBX 6 7 0 0
BITMAP
38
6C
CC
CC
CC
D8
70
ENDCHAR
STARTCHAR 043F
ENCODING 1087
SWIDTH 523 0
DWIDTH 8 0
BBX 7 7 0 0
BITMAP
EC
76
66
66
CC
CC
CE
ENDCHAR
STARTCHAR 0440
ENCODING 1088
SWIDTH 523 0
DWIDTH 8 0
BBX 8 10 -1 -3
BITMAP
3B
1D
19
19
31
33
3E
30
30
78
ENDCHAR
STARTCHAR 0441
ENCODING 1089
SWIDTH 458 0
DWIDTH 7 0
BBX 6 7 0 0
BITMAP
3C
64
C0
C0
C0
C8
70
ENDCHAR
STARTCHAR 0442
ENCODING 1090
SWIDTH 785 0
DWIDTH 12 0
BBX 11 7 0 0
BITMAP
ECC0
7760
6660
6660
CCC0
CCC0
CCE0
ENDCHAR
STARTCHAR 0443
ENCODING 1091
SWIDTH 458 0
DWIDTH 7 0
BBX 8 10 -1 -3
BITMAP
39
18
19
1A
1C
18
18
10
20
C0
ENDCHAR
STARTCHAR 0444
ENCODING 1092
SWIDTH 720 0
DWIDTH 11 0
BBX 10 13 0 -3
BITMAP
0E00
0600
0600
3F80
6CC0
CCC0
CCC0
CCC0
CD80
7F00
1800
1800
1C00
ENDCHAR
STARTCHAR 0445
ENCODING 1093
SWIDTH 523 0
DWIDTH 8 0
BBX 8 7 0 0
BITMAP
73
32
1C
18
38
4C
CE
ENDCHAR
STARTCHAR 0446
ENCODING 1094
SWIDTH 523 0
DWIDTH 8 0
BBX 7 10 0 -3
BITMAP
E6
66
66
66
CC
CC
7E
04
04
0C
ENDCHAR
STARTCHAR 0447
ENCODING 1095
SWIDTH 523 0
DWIDTH 8 0
BBX 7 7 0 0
BITMAP
E6
66
66
6C
3C
0C
0E
ENDCHAR
STARTCHAR 0448
ENCODING 1096
SWIDTH 850 0
DWIDTH 13 0
BBX 11 7 1 0
BITMAP
E660
6660
6660
6660
CCC0
DDC0
66E0
ENDCHAR
STARTCHAR 0449
ENCODING 1097
SWIDTH 850 0
DWIDTH 13 0
BBX 11 10 1 -3
BITMAP
E660
6660
6660
6660
CCC0
DDC0
66E0
0060
0060
00C0
ENDCHAR
STARTCHAR 044A
ENCODING 1098
SWIDTH 523 0
DWIDTH 8 0
BBX 7 7 0 0
BITMAP
F0
90
20
7C
66
66
3C
ENDCHAR
STARTCHAR 044B
ENCODING 1099
SWIDTH 654 0
DWIDTH 10 0
BBX 9 7 0 0
BITMAP
E180
6180
6180
6180
FF00
CF00
FB80
ENDCHAR
STARTCHAR 044C
ENCODING 1100
SWIDTH 458 0
DWIDTH 7 0
BBX 6 7 0 0
BITMAP
E0
60
60
60
FC
CC
F8
ENDCHAR
STARTCHAR 044D
ENCODING 1101
SWIDTH 392 0
DWIDTH 6 0
BBX 5 7 0 0
BITMAP
70
58
18
78
18
B0
60
ENDCHAR
STARTCHAR 044E
ENCODING 1102
SWIDTH 720 0
DWIDTH 11 0
BBX 10 7 0 0
BITMAP
E380
66C0
6CC0
7CC0
CCC0
CD80
C700
ENDCHAR
STARTCHAR 044F
ENCODING 1103
SWIDTH 523 0
DWIDTH 8 0
BBX 7 7 0 0
BITMAP
3E
66
66
3E
2C
6C
CE
ENDCHAR
STARTCHAR 0451
ENCODING 1105
SWIDTH 458 0
DWIDTH 7 0
BBX 7 10 0 0
BITMAP
36
36
00
38
6C
CC
F0
C0
C8
70
ENDCHAR
STARTCHAR 0452
ENCODING 1106
SWIDTH 523 0
DWIDTH 8 0
BBX 7 13 0 -3
BITMAP
70
F8
60
6C
76
66
66
CC
CC
CC
0C
2C
38
ENDCHAR
STARTCHAR 0453
ENCODING 1107
SWIDTH 392 0
DWIDTH 6 0
BBX 6 10 0 0
BITMAP
0C
18
00
FC
64
60
60
C0
C0
C0
ENDCHAR
STARTCHAR 0454
ENCODING 1108
SWIDTH 392 0
DWIDTH 6 0
BBX 6 7 0 0
BITMAP
3C
64
C0
F0
C0
C8
70
ENDCHAR
STARTCHAR 0455
ENCODING 1109
SWIDTH 392 0
DWIDTH 6 0
BBX 6 7 0 0
BITMAP
3C
64
60
30
18
98
F0
ENDCHAR
STARTCHAR 0456
ENCODING 1110
SWIDTH 261 0
DWIDTH 4 0
BBX 4 10 0 0
BITMAP
30
30
00
E0
60
60
60
C0
C0
E0
ENDCHAR
STARTCHAR 0457
ENCODING 1111
SWIDTH 261 0
DWIDTH 4 0
BBX 5 10 0 0
BITMAP
D8
D8
00
E0
60
60
60
C0
C0
E0
ENDCHAR
STARTCHAR 0458
ENCODING 1112
SWIDTH 261 0
DWIDTH 4 0
BBX 7 13 -3 -3
BITMAP
06
06
00
1C
0C
0C
0C
18
18
18
18
B0
E0
ENDCHAR
STARTCHAR 0459
ENCODING 1113
SWIDTH 654 0
DWIDTH 10 0
BBX 10 7 -1 0
BITMAP
0E00
1600
1600
2780
2CC0
2CC0
CF80
ENDCHAR
STARTCHAR 045A
ENCODING 1114
SWIDTH 720 0
DWIDTH 11 0
BBX 10 7 0 0
BITMAP
E600
6600
6600
7C00
CFC0
CCC0
CF80
ENDCHAR
STARTCHAR 045B
ENCODING 1115
SWIDTH 523 0
DWIDTH 8 0
BBX 7 10 0 0
BITMAP
70
F8
60
6C
76
66
66
CC
CC
CE
ENDCHAR
STARTCHAR 045C
ENCODING 1116
SWIDTH 523 0
DWIDTH 8 0
BBX 8 10 0 0
BITMAP
06
08
00
EF
64
68
78
CC
CC
C6
ENDCHAR
STARTCHAR 045E
ENCODING 1118
SWIDTH 458 0
DWIDTH 7 0
BBX 8 13 -1 -3
BITMAP
0C
07
00
39
18
19
1A
1C
18
18
10
20
C0
ENDCHAR
STARTCHAR 045F
ENCODING 1119
SWIDTH 523 0
DWIDTH 8 0
BBX 7 10 0 -3
BITMAP
E6
66
66
66
CC
CC
7E
10
30
70
ENDCHAR
STARTCHAR 0490
ENCODING 1168
SWIDTH 458 0
DWIDTH 7 0
BBX 7 11 1 0
BITMAP
02
7E
30
30
30
30
30
60
60
60
F0
ENDCHAR
STARTCHAR 0491
ENCODING 1169
SWIDTH 392 0
DWIDTH 6 0
BBX 6 9 0 0
BITMAP
04
0C
FC
60
60
60
C0
C0
C0
ENDCHAR
STARTCHAR 1E80
ENCODING 7808
SWIDTH 850 0
DWIDTH 13 0
BBX 12 13 1 0
BITMAP
0600
0100
0000
F070
6220
6640
6640
6E80
6E80
7700
7700
2600
2200
ENDCHAR
STARTCHAR 1E81
ENCODING 7809
SWIDTH 654 0
DWIDTH 10 0
BBX 9 10 0 0
BITMAP
0C00
0200
0000
E180
6480
6D00
7500
3600
3600
2400
ENDCHAR
STARTCHAR 1E82
ENCODING 7810
SWIDTH 850 0
DWIDTH 13 0
BBX 12 13 1 0
BITMAP
0180
0200
0000
F070
6220
6640
6640
6E80
6E80
7700
7700
2600
2200
ENDCHAR
STARTCHAR 1E83
ENCODING 7811
SWIDTH 654 0
DWIDTH 10 0
BBX 9 10 0 0
BITMAP
0300
0400
0000
E180
6480
6D00
7500
3600
3600
2400
ENDCHAR
STARTCHAR 1E84
ENCODING 7812
SWIDTH 850 0
DWIDTH 13 0
BBX 12 13 1 0
BITMAP
0D80
0D80
0000
F070
6220
6640
6640
6E80
6E80
7700
7700
2600
2200
ENDCHAR
STARTCHAR 1E85
ENCODING 7813
SWIDTH 654 0
DWIDTH 10 0
BBX 9 10 0 0
BITMAP
1B00
1B00
0000
E180
6480
6D00
7500
3600
3600
2400
ENDCHAR
STARTCHAR 1EF2
ENCODING 7922
SWIDTH 654 0
DWIDTH 10 0
BBX 8 13 2 0
BITMAP
18
04
00
F3
61
32
34
34
18
18
30
30
FC
ENDCHAR
STARTCHAR 1EF3
ENCODING 7923
SWIDTH 458 0
DWIDTH 7 0
BBX 8 13 -1 -3
BITMAP
0C
02
00
39
18
19
1A
1C
18
18
10
20
C0
ENDCHAR
STARTCHAR 2013
ENCODING 8211
SWIDTH 523 0
DWIDTH 8 0
BBX 8 1 0 4
BITMAP
FF
ENDCHAR
STARTCHAR 2014
ENCODING 8212
SWIDTH 981 0
DWIDTH 15 0
BBX 15 1 0 4
BITMAP
FFFE
ENDCHAR
STARTCHAR 2015
ENCODING 8213
SWIDTH 981 0
DWIDTH 15 0
BBX 15 1 0 4
BITMAP
FFFE
ENDCHAR
STARTCHAR 2017
ENCODING 8215
SWIDTH 523 0
DWIDTH 8 0
BBX 8 3 0 -4
BITMAP
FF
00
FF
ENDCHAR
STARTCHAR 2018
ENCODING 8216
SWIDTH 327 0
DWIDTH 5 0
BBX 3 5 2 5
BITMAP
20
C0
80
C0
C0
ENDCHAR
STARTCHAR 2019
ENCODING 8217
SWIDTH 327 0
DWIDTH 5 0
BBX 3 5 1 5
BITMAP
60
60
20
40
80
ENDCHAR
STARTCHAR 201A
ENCODING 8218
SWIDTH 327 0
DWIDTH 5 0
BBX 3 5 -1 -3
BITMAP
60
60
20
40
80
ENDCHAR
STARTCHAR 201B
ENCODING 8219
SWIDTH 327 0
DWIDTH 5 0
BBX 2 5 2 5
BITMAP
C0
C0
80
80
40
ENDCHAR
STARTCHAR 201C
ENCODING 8220
SWIDTH 523 0
DWIDTH 8 0
BBX 6 5 3 5
BITMAP
24
48
90
D8
D8
ENDCHAR
STARTCHAR 201D
ENCODING 8221
SWIDTH 523 0
DWIDTH 8 0
BBX 6 5 1 5
BITMAP
6C
6C
24
48
90
ENDCHAR
STARTCHAR 201E
ENCODING 8222
SWIDTH 523 0
DWIDTH 8 0
BBX 6 5 -1 -3
BITMAP
6C
6C
24
48
90
ENDCHAR
STARTCHAR 2020
ENCODING 8224
SWIDTH 523 0
DWIDTH 8 0
BBX 7 12 0 -2
BITMAP
18
18
10
FE
D6
30
20
20
20
40
40
40
ENDCHAR
STARTCHAR 2021
ENCODING 8225
SWIDTH 523 0
DWIDTH 8 0
BBX 8 12 -1 -2
BITMAP
0C
0C
08
7F
6B
18
18
10
FE
D6
30
30
ENDCHAR
STARTCHAR 2022
ENCODING 8226
SWIDTH 327 0
DWIDTH 5 0
BBX 4 4 0 3
BITMAP
60
F0
F0
60
ENDCHAR
STARTCHAR 2026
ENCODING 8230
SWIDTH 981 0
DWIDTH 15 0
BBX 12 2 1 0
BITMAP
C630
C630
ENDCHAR
STARTCHAR 2030
ENCODING 8240
SWIDTH 916 0
DWIDTH 14 0
BBX 14 10 0 0
BITMAP
18C0
2480
4500
4E00
3C00
0F18
1CA4
28C4
4948
C630
ENDCHAR
STARTCHAR 2032
ENCODING 8242
SWIDTH 261 0
DWIDTH 4 0
BBX 2 4 1 6
BITMAP
C0
C0
80
80
ENDCHAR
STARTCHAR 2033
ENCODING 8243
SWIDTH 523 0
DWIDTH 8 0
BBX 5 4 2 6
BITMAP
D8
D8
90
90
ENDCHAR
STARTCHAR 2039
ENCODING 8249
SWIDTH 327 0
DWIDTH 5 0
BBX 4 5 0 1
BITMAP
10
60
C0
40
20
ENDCHAR
STARTCHAR 203A
ENCODING 8250
SWIDTH 327 0
DWIDTH 5 0
BBX 4 5 0 1
BITMAP
40
20
30
60
80
ENDCHAR
STARTCHAR 203C
ENCODING 8252
SWIDTH 654 0
DWIDTH 10 0
BBX 8 10 0 0
BITMAP
33
33
22
22
22
44
44
00
CC
CC
ENDCHAR
STARTCHAR 203E
ENCODING 8254
SWIDTH 327 0
DWIDTH 5 0
BBX 5 1 0 11
BITMAP
F8
ENDCHAR
STARTCHAR 2044
ENCODING 8260
SWIDTH 196 0
DWIDTH 3 0
BBX 8 10 -3 0
BITMAP
01
02
04
04
08
10
20
20
40
80
ENDCHAR
STARTCHAR 207F
ENCODING 8319
SWIDTH 392 0
DWIDTH 6 0
BBX 4 4 1 4
BITMAP
E0
60
A0
B0
ENDCHAR
STARTCHAR 20A3
ENCODING 8355
SWIDTH 523 0
DWIDTH 8 0
BBX 8 10 0 0
BITMAP
3F
18
18
19
1F
19
30
7C
30
78
ENDCHAR
STARTCHAR 20A4
ENCODING 8356
SWIDTH 523 0
DWIDTH 8 0
BBX 8 10 0 0
BITMAP
0F
19
31
30
7C
30
7C
20
40
FE
ENDCHAR
STARTCHAR 20A7
ENCODING 8359
SWIDTH 981 0
DWIDTH 15 0
BBX 14 10 0 0
BITMAP
7E00
3300
3300
3380
3780
3FCC
6198
619C
632C
F1F8
ENDCHAR
STARTCHAR 20AC
ENCODING 8364
SWIDTH 523 0
DWIDTH 8 0
BBX 8 10 0 0
BITMAP
1F
31
31
F8
60
F8
60
62
62
3E
ENDCHAR
STARTCHAR 2105
ENCODING 8453
SWIDTH 850 0
DWIDTH 13 0
BBX 10 10 2 0
BITMAP
3840
4880
8100
8200
7400
0980
1240
2440
4480
8300
ENDCHAR
STARTCHAR 2113
ENCODING 8467
SWIDTH 392 0
DWIDTH 6 0
BBX 5 10 1 0
BITMAP
18
28
28
28
30
60
C0
40
50
60
ENDCHAR
STARTCHAR 2116
ENCODING 8470
SWIDTH 916 0
DWIDTH 14 0
BBX 13 10 0 0
BITMAP
38E0
1C40
1C40
1680
1698
13A0
23A0
2398
2100
7138
ENDCHAR
STARTCHAR 2122
ENCODING 8482
SWIDTH 981 0
DWIDTH 15 0
BBX 14 6 1 4
BITMAP
FF1C
AB18
22A8
22A8
2248
775C
ENDCHAR
STARTCHAR 2126
ENCODING 8486
SWIDTH 785 0
DWIDTH 12 0
BBX 10 10 1 0
BITMAP
3F00
6180
C0C0
C0C0
C0C0
E180
3300
9240
F3C0
F3C0
ENDCHAR
STARTCHAR 212E
ENCODING 8494
SWIDTH 589 0
DWIDTH 9 0
BBX 8 8 1 0
BITMAP
3C
42
C3
FF
C0
C0
41
3E
ENDCHAR
STARTCHAR 215B
ENCODING 8539
SWIDTH 720 0
DWIDTH 11 0
BBX 10 10 1 0
BITMAP
3040
1080
2100
2100
22C0
7500
08C0
0B00
1200
23C0
ENDCHAR
STARTCHAR 215C
ENCODING 8540
SWIDTH 720 0
DWIDTH 11 0
BBX 10 10 1 0
BITMAP
6100
1200
6400
1400
9980
F240
2180
2640
4440
8780
ENDCHAR
STARTCHAR 215D
ENCODING 8541
SWIDTH 720 0
DWIDTH 11 0
BBX 10 10 1 0
BITMAP
7880
4100
6200
1200
9580
EA40
1180
1640
2440
4780
ENDCHAR
STARTCHAR 215E
ENCODING 8542
SWIDTH 720 0
DWIDTH 11 0
BBX 9 10 2 0
BITMAP
F900
9200
2400
2400
4B00
9480
2300
2C80
4880
8F00
ENDCHAR
STARTCHAR 2190
ENCODING 8592
SWIDTH 981 0
DWIDTH 15 0
BBX 9 3 3 0
BITMAP
4000
FF80
4000
ENDCHAR
STARTCHAR 2191
ENCODING 8593
SWIDTH 523 0
DWIDTH 8 0
BBX 3 9 2 -1
BITMAP
20
60
20
20
20
20
20
20
20
ENDCHAR
STARTCHAR 2192
ENCODING 8594
SWIDTH 981 0
DWIDTH 15 0
BBX 9 3 3 0
BITMAP
0100
FF80
0100
ENDCHAR
STARTCHAR 2193
ENCODING 8595
SWIDTH 523 0
DWIDTH 8 0
BBX 3 9 2 -1
BITMAP
20
20
20
20
20
20
20
60
20
ENDCHAR
STARTCHAR 2194
ENCODING 8596
SWIDTH 981 0
DWIDTH 15 0
BBX 9 3 3 0
BITMAP
4100
FF80
4100
ENDCHAR
STARTCHAR 2195
ENCODING 8597
SWIDTH 523 0
DWIDTH 8 0
BBX 3 9 2 -1
BITMAP
20
60
20
20
20
20
20
60
20
ENDCHAR
STARTCHAR 21A8
ENCODING 8616
SWIDTH 523 0
DWIDTH 8 0
BBX 3 11 2 -3
BITMAP
20
60
20
20
20
20
20
60
20
00
60
ENDCHAR
STARTCHAR 2202
ENCODING 8706
SWIDTH 523 0
DWIDTH 8 0
BBX 7 11 0 0
BITMAP
1C
02
02
02
3A
46
82
84
84
88
70
ENDCHAR
STARTCHAR 2206
ENCODING 8710
SWIDTH 589 0
DWIDTH 9 0
BBX 8 10 0 0
BITMAP
18
18
2C
2C
2C
46
46
46
83
FF
ENDCHAR
STARTCHAR 220F
ENCODING 8719
SWIDTH 785 0
DWIDTH 12 0
BBX 10 13 1 -3
BITMAP
7FC0
30C0
30C0
30C0
30C0
30C0
30C0
30C0
30C0
30C0
30C0
30C0
79C0
ENDCHAR
STARTCHAR 2211
ENCODING 8721
SWIDTH 720 0
DWIDTH 11 0
BBX 9 13 1 -3
BITMAP
FF00
E100
7100
3000
1800
1800
0800
1000
1000
2080
4080
FF80
FF80
ENDCHAR
STARTCHAR 2212
ENCODING 8722
SWIDTH 589 0
DWIDTH 9 0
BBX 7 1 1 5
BITMAP
FE
ENDCHAR
STARTCHAR 2215
ENCODING 8725
SWIDTH 196 0
DWIDTH 3 0
BBX 8 10 -3 0
BITMAP
01
02
04
04
08
10
20
20
40
80
ENDCHAR
STARTCHAR 2219
ENCODING 8729
SWIDTH 261 0
DWIDTH 4 0
BBX 2 2 1 4
BITMAP
C0
C0
ENDCHAR
STARTCHAR 221A
ENCODING 8730
SWIDTH 523 0
DWIDTH 8 0
BBX 7 12 1 0
BITMAP
02
02
04
04
04
C4
48
28
28
30
30
10
ENDCHAR
STARTCHAR 221E
ENCODING 8734
SWIDTH 720 0
DWIDTH 11 0
BBX 10 6 1 0
BITMAP
7380
8C40
8840
8840
8C40
7380
ENDCHAR
STARTCHAR 221F
ENCODING 8735
SWIDTH 981 0
DWIDTH 15 0
BBX 9 9 3 0
BITMAP
8000
8000
8000
8000
8000
8000
8000
8000
FF80
ENDCHAR
STARTCHAR 2229
ENCODING 8745
SWIDTH 720 0
DWIDTH 11 0
BBX 7 8 2 0
BITMAP
38
44
82
82
82
82
82
82
ENDCHAR
STARTCHAR 222B
ENCODING 8747
SWIDTH 196 0
DWIDTH 3 0
BBX 5 15 -1 -4
BITMAP
08
10
10
10
10
10
10
10
10
10
10
10
10
10
60
ENDCHAR
STARTCHAR 2248
ENCODING 8776
SWIDTH 523 0
DWIDTH 8 0
BBX 8 6 0 3
BITMAP
61
99
86
61
99
86
ENDCHAR
STARTCHAR 2260
ENCODING 8800
SWIDTH 523 0
DWIDTH 8 0
BBX 7 8 1 1
BITMAP
02
04
FE
10
10
FE
40
80
ENDCHAR
STARTCHAR 2261
ENCODING 8801
SWIDTH 589 0
DWIDTH 9 0
BBX 7 6 1 2
BITMAP
7E
00
7E
00
00
7E
ENDCHAR
STARTCHAR 2264
ENCODING 8804
SWIDTH 523 0
DWIDTH 8 0
BBX 7 9 1 0
BITMAP
02
0C
70
80
70
0C
02
00
FE
ENDCHAR
STARTCHAR 2265
ENCODING 8805
SWIDTH 523 0
DWIDTH 8 0
BBX 7 9 1 0
BITMAP
80
60
1C
02
1C
60
80
00
FE
ENDCHAR
STARTCHAR 2302
ENCODING 8962
SWIDTH 589 0
DWIDTH 9 0
BBX 7 9 1 0
BITMAP
10
28
44
82
82
82
82
82
FE
ENDCHAR
STARTCHAR 2310
ENCODING 8976
SWIDTH 589 0
DWIDTH 9 0
BBX 7 4 1 2
BITMAP
FE
80
80
80
ENDCHAR
STARTCHAR 2320
ENCODING 8992
SWIDTH 589 0
DWIDTH 9 0
BBX 3 18 4 -5
BITMAP
60
80
80
80
80
80
80
80
80
80
80
80
80
80
80
80
80
80
ENDCHAR
STARTCHAR 2321
ENCODING 8993
SWIDTH 589 0
DWIDTH 9 0
BBX 3 18 2 -5
BITMAP
20
20
20
20
20
20
20
20
20
20
20
20
20
20
20
20
20
C0
ENDCHAR
STARTCHAR 2500
ENCODING 9472
SWIDTH 720 0
DWIDTH 11 0
BBX 11 1 0 4
BITMAP
7FE0
ENDCHAR
STARTCHAR 2502
ENCODING 9474
SWIDTH 589 0
DWIDTH 9 0
BBX 1 19 5 -5
BITMAP
80
80
80
80
80
80
80
80
80
80
80
80
80
80
80
80
80
80
80
ENDCHAR
STARTCHAR 250C
ENCODING 9484
SWIDTH 720 0
DWIDTH 11 0
BBX 6 10 5 -5
BITMAP
FC
80
80
80
80
80
80
80
80
80
ENDCHAR
STARTCHAR 2510
ENCODING 9488
SWIDTH 720 0
DWIDTH 11 0
BBX 5 1 1 4
BITMAP
F8
ENDCHAR
STARTCHAR 2514
ENCODING 9492
SWIDTH 720 0
DWIDTH 11 0
BBX 6 10 5 4
BITMAP
80
80
80
80
80
80
80
80
80
FC
ENDCHAR
STARTCHAR 2518
ENCODING 9496
SWIDTH 720 0
DWIDTH 11 0
BBX 5 1 1 4
BITMAP
F8
ENDCHAR
STARTCHAR 251C
ENCODING 9500
SWIDTH 720 0
DWIDTH 11 0
BBX 6 19 5 -5
BITMAP
80
80
80
80
80
80
80
80
80
FC
80
80
80
80
80
80
80
80
80
ENDCHAR
STARTCHAR 2524
ENCODING 9508
SWIDTH 720 0
DWIDTH 11 0
BBX 5 1 1 4
BITMAP
F8
ENDCHAR
STARTCHAR 252C
ENCODING 9516
SWIDTH 720 0
DWIDTH 11 0
BBX 11 10 0 -5
BITMAP
7FE0
0200
0200
0200
0200
0200
0200
0200
0200
0200
ENDCHAR
STARTCHAR 2534
ENCODING 9524
SWIDTH 720 0
DWIDTH 11 0
BBX 11 10 0 4
BITMAP
0200
0200
0200
0200
0200
0200
0200
0200
0200
7FE0
ENDCHAR
STARTCHAR 253C
ENCODING 9532
SWIDTH 720 0
DWIDTH 11 0
BBX 11 19 0 -5
BITMAP
0200
0200
0200
0200
0200
0200
0200
0200
0200
7FE0
0200
0200
0200
0200
0200
0200
0200
0200
0200
ENDCHAR
STARTCHAR 2550
ENCODING 9552
SWIDTH 720 0
DWIDTH 11 0
BBX 11 4 0 3
BITMAP
7FE0
0000
0000
7FE0
ENDCHAR
STARTCHAR 2551
ENCODING 9553
SWIDTH 720 0
DWIDTH 11 0
BBX 4 19 3 -5
BITMAP
90
90
90
90
90
90
90
90
90
90
90
90
90
90
90
90
90
90
90
ENDCHAR
STARTCHAR 2552
ENCODING 9554
SWIDTH 720 0
DWIDTH 11 0
BBX 6 12 5 -5
BITMAP
FC
80
80
FC
80
80
80
80
80
80
80
80
ENDCHAR
STARTCHAR 2553
ENCODING 9555
SWIDTH 720 0
DWIDTH 11 0
BBX 8 10 3 -5
BITMAP
FF
90
90
90
90
90
90
90
90
90
ENDCHAR
STARTCHAR 2554
ENCODING 9556
SWIDTH 720 0
DWIDTH 11 0
BBX 8 12 3 -5
BITMAP
FF
80
80
9F
90
90
90
90
90
90
90
90
ENDCHAR
STARTCHAR 2555
ENCODING 9557
SWIDTH 720 0
DWIDTH 11 0
BBX 5 4 1 3
BITMAP
F8
00
00
F8
ENDCHAR
STARTCHAR 2556
ENCODING 9558
SWIDTH 720 0
DWIDTH 11 0
BBX 7 10 0 -5
BITMAP
7E
08
08
08
08
08
08
08
08
08
ENDCHAR
STARTCHAR 2557
ENCODING 9559
SWIDTH 720 0
DWIDTH 11 0
BBX 7 12 0 -5
BITMAP
7E
00
00
78
08
08
08
08
08
08
08
08
ENDCHAR
STARTCHAR 2558
ENCODING 9560
SWIDTH 720 0
DWIDTH 11 0
BBX 6 11 5 3
BITMAP
80
80
80
80
80
80
80
FC
80
80
FC
ENDCHAR
STARTCHAR 2559
ENCODING 9561
SWIDTH 720 0
DWIDTH 11 0
BBX 8 10 3 4
BITMAP
90
90
90
90
90
90
90
90
90
FF
ENDCHAR
STARTCHAR 255A
ENCODING 9562
SWIDTH 720 0
DWIDTH 11 0
BBX 8 11 3 3
BITMAP
90
90
90
90
90
90
90
9F
80
80
FF
ENDCHAR
STARTCHAR 255B
ENCODING 9563
SWIDTH 720 0
DWIDTH 11 0
BBX 5 4 1 3
BITMAP
F8
00
00
F8
ENDCHAR
STARTCHAR 255C
ENCODING 9564
SWIDTH 720 0
DWIDTH 11 0
BBX 7 10 0 4
BITMAP
08
08
08
08
08
08
08
08
08
7E
ENDCHAR
STARTCHAR 255D
ENCODING 9565
SWIDTH 720 0
DWIDTH 11 0
BBX 7 11 0 3
BITMAP
08
08
08
08
08
08
08
78
00
00
7E
ENDCHAR
STARTCHAR 255E
ENCODING 9566
SWIDTH 720 0
DWIDTH 11 0
BBX 6 19 5 -5
BITMAP
80
80
80
80
80
80
80
FC
80
80
FC
80
80
80
80
80
80
80
80
ENDCHAR
STARTCHAR 255F
ENCODING 9567
SWIDTH 720 0
DWIDTH 11 0
BBX 8 19 3 -5
BITMAP
90
90
90
90
90
90
90
90
90
9F
90
90
90
90
90
90
90
90
90
ENDCHAR
STARTCHAR 2560
ENCODING 9568
SWIDTH 720 0
DWIDTH 11 0
BBX 8 19 3 -5
BITMAP
90
90
90
90
90
90
90
9F
80
80
9F
90
90
90
90
90
90
90
90
ENDCHAR
STARTCHAR 2561
ENCODING 9569
SWIDTH 720 0
DWIDTH 11 0
BBX 5 4 1 3
BITMAP
F8
00
00
F8
ENDCHAR
STARTCHAR 2562
ENCODING 9570
SWIDTH 720 0
DWIDTH 11 0
BBX 7 19 0 -5
BITMAP
08
08
08
08
08
08
08
08
08
78
08
08
08
08
08
08
08
08
08
ENDCHAR
STARTCHAR 2563
ENCODING 9571
SWIDTH 720 0
DWIDTH 11 0
BBX 7 19 0 -5
BITMAP
08
08
08
08
08
08
08
78
00
00
78
08
08
08
08
08
08
08
08
ENDCHAR
STARTCHAR 2564
ENCODING 9572
SWIDTH 720 0
DWIDTH 11 0
BBX 11 12 0 -5
BITMAP
7FE0
0000
0000
7FE0
0200
0200
0200
0200
0200
0200
0200
0200
ENDCHAR
STARTCHAR 2565
ENCODING 9573
SWIDTH 720 0
DWIDTH 11 0
BBX 11 10 0 -5
BITMAP
7FE0
0900
0900
0900
0900
0900
0900
0900
0900
0900
ENDCHAR
STARTCHAR 2566
ENCODING 9574
SWIDTH 720 0
DWIDTH 11 0
BBX 11 12 0 -5
BITMAP
7FE0
0000
0000
79E0
0900
0900
0900
0900
0900
0900
0900
0900
ENDCHAR
STARTCHAR 2567
ENCODING 9575
SWIDTH 720 0
DWIDTH 11 0
BBX 11 11 0 3
BITMAP
0200
0200
0200
0200
0200
0200
0200
7FE0
0000
0000
7FE0
ENDCHAR
STARTCHAR 2568
ENCODING 9576
SWIDTH 720 0
DWIDTH 11 0
BBX 11 10 0 4
BITMAP
0900
0900
0900
0900
0900
0900
0900
0900
0900
7FE0
ENDCHAR
STARTCHAR 2569
ENCODING 9577
SWIDTH 720 0
DWIDTH 11 0
BBX 11 11 0 3
BITMAP
0900
0900
0900
0900
0900
0900
0900
79E0
0000
0000
7FE0
ENDCHAR
STARTCHAR 256A
ENCODING 9578
SWIDTH 720 0
DWIDTH 11 0
BBX 11 19 0 -5
BITMAP
0200
0200
0200
0200
0200
0200
0200
7FE0
0200
0200
7FE0
0200
0200
0200
0200
0200
0200
0200
0200
ENDCHAR
STARTCHAR 256B
ENCODING 9579
SWIDTH 720 0
DWIDTH 11 0
BBX 11 19 0 -5
BITMAP
0900
0900
0900
0900
0900
0900
0900
0900
0900
7FE0
0900
0900
0900
0900
0900
0900
0900
0900
0900
ENDCHAR
STARTCHAR 256C
ENCODING 9580
SWIDTH 720 0
DWIDTH 11 0
BBX 11 19 0 -5
BITMAP
0900
0900
0900
0900
0900
0900
0900
79E0
0000
0000
79E0
0900
0900
0900
0900
0900
0900
0900
0900
ENDCHAR
STARTCHAR 2580
ENCODING 9600
SWIDTH 720 0
DWIDTH 11 0
BBX 11 9 0 5
BITMAP
FFE0
FFE0
FFE0
FFE0
FFE0
FFE0
FFE0
FFE0
FFE0
ENDCHAR
STARTCHAR 2584
ENCODING 9604
SWIDTH 720 0
DWIDTH 11 0
BBX 11 10 0 -5
BITMAP
FFE0
FFE0
FFE0
FFE0
FFE0
FFE0
FFE0
FFE0
FFE0
FFE0
ENDCHAR
STARTCHAR 2588
ENCODING 9608
SWIDTH 720 0
DWIDTH 11 0
BBX 11 19 0 -5
BITMAP
FFE0
FFE0
FFE0
FFE0
FFE0
FFE0
FFE0
FFE0
FFE0
FFE0
FFE0
FFE0
FFE0
FFE0
FFE0
FFE0
FFE0
FFE0
FFE0
ENDCHAR
STARTCHAR 258C
ENCODING 9612
SWIDTH 720 0
DWIDTH 11 0
BBX 5 19 0 -5
BITMAP
F8
F8
F8
F8
F8
F8
F8
F8
F8
F8
F8
F8
F8
F8
F8
F8
F8
F8
F8
ENDCHAR
STARTCHAR 2590
ENCODING 9616
SWIDTH 720 0
DWIDTH 11 0
BBX 6 19 5 -5
BITMAP
FC
FC
FC
FC
FC
FC
FC
FC
FC
FC
FC
FC
FC
FC
FC
FC
FC
FC
FC
ENDCHAR
STARTCHAR 2591
ENCODING 9617
SWIDTH 720 0
DWIDTH 11 0
BBX 10 16 1 -4
BITMAP
9240
2480
0000
9240
2480
9240
0000
2480
9240
0000
2480
9240
2480
0000
9240
2480
ENDCHAR
STARTCHAR 2592
ENCODING 9618
SWIDTH 720 0
DWIDTH 11 0
BBX 11 15 0 -4
BITMAP
9240
6DA0
0000
9240
6DA0
0000
0000
6DA0
9240
0000
6DA0
9240
0000
0000
9240
ENDCHAR
STARTCHAR 2593
ENCODING 9619
SWIDTH 720 0
DWIDTH 11 0
BBX 11 17 0 -5
BITMAP
FFE0
DAC0
6DA0
FFE0
DAE0
6DA0
FFE0
FFE0
6DA0
DAC0
FFE0
6DA0
DAC0
FFE0
FFE0
DAC0
FFE0
ENDCHAR
STARTCHAR 25A0
ENCODING 9632
SWIDTH 589 0
DWIDTH 9 0
BBX 7 7 1 0
BITMAP
7E
7E
7E
7E
7E
7E
7E
ENDCHAR
STARTCHAR 25A1
ENCODING 9633
SWIDTH 589 0
DWIDTH 9 0
BBX 9 9 0 0
BITMAP
FF80
8080
8080
8080
8080
8080
8080
8080
FF80
ENDCHAR
STARTCHAR 25AA
ENCODING 9642
SWIDTH 327 0
DWIDTH 5 0
BBX 4 4 0 3
BITMAP
F0
F0
F0
F0
ENDCHAR
STARTCHAR 25AB
ENCODING 9643
SWIDTH 327 0
DWIDTH 5 0
BBX 4 4 0 3
BITMAP
F0
90
90
F0
ENDCHAR
STARTCHAR 25AC
ENCODING 9644
SWIDTH 981 0
DWIDTH 15 0
BBX 15 5 0 0
BITMAP
FFFE
FFFE
FFFE
FFFE
FFFE
ENDCHAR
STARTCHAR 25B2
ENCODING 9650
SWIDTH 981 0
DWIDTH 15 0
BBX 9 9 3 0
BITMAP
0800
0800
1C00
1C00
3E00
3E00
7F00
7F00
FF80
ENDCHAR
STARTCHAR 25BA
ENCODING 9658
SWIDTH 981 0
DWIDTH 15 0
BBX 8 8 4 -1
BITMAP
C0
F0
FC
FF
FE
F8
E0
80
ENDCHAR
STARTCHAR 25BC
ENCODING 9660
SWIDTH 981 0
DWIDTH 15 0
BBX 9 9 3 -1
BITMAP
FF80
7F00
7F00
3E00
3E00
1C00
1C00
0800
0800
ENDCHAR
STARTCHAR 25C4
ENCODING 9668
SWIDTH 981 0
DWIDTH 15 0
BBX 8 7 4 0
BITMAP
03
0F
3F
FF
3F
0F
03
ENDCHAR
STARTCHAR 25CA
ENCODING 9674
SWIDTH 523 0
DWIDTH 8 0
BBX 7 10 1 0
BITMAP
10
28
28
44
82
82
44
28
28
10
ENDCHAR
STARTCHAR 25CB
ENCODING 9675
SWIDTH 589 0
DWIDTH 9 0
BBX 7 7 1 1
BITMAP
38
44
82
82
82
44
38
ENDCHAR
STARTCHAR 25CF
ENCODING 9679
SWIDTH 589 0
DWIDTH 9 0
BBX 6 6 1 1
BITMAP
78
FC
FC
FC
FC
78
ENDCHAR
STARTCHAR 25D8
ENCODING 9688
SWIDTH 589 0
DWIDTH 9 0
BBX 8 8 0 0
BITMAP
FF
C3
81
81
81
81
C3
FF
ENDCHAR
STARTCHAR 25D9
ENCODING 9689
SWIDTH 589 0
DWIDTH 9 0
BBX 8 8 0 0
BITMAP
FF
C3
99
BD
BD
99
C3
FF
ENDCHAR
STARTCHAR 25E6
ENCODING 9702
SWIDTH 327 0
DWIDTH 5 0
BBX 4 4 1 2
BITMAP
60
90
90
60
ENDCHAR
STARTCHAR 263A
ENCODING 9786
SWIDTH 981 0
DWIDTH 15 0
BBX 9 9 3 0
BITMAP
3E00
4100
8080
A280
8080
A280
9C80
4100
3E00
ENDCHAR
STARTCHAR 263B
ENCODING 9787
SWIDTH 1047 0
DWIDTH 16 0
BBX 9 9 3 0
BITMAP
3E00
7F00
FF80
DD80
FF80
DD80
E380
7F00
3E00
ENDCHAR
STARTCHAR 263C
ENCODING 9788
SWIDTH 916 0
DWIDTH 14 0
BBX 9 9 2 -1
BITMAP
0800
4900
3E00
2200
E380
2200
3E00
4900
0800
ENDCHAR
STARTCHAR 2640
ENCODING 9792
SWIDTH 720 0
DWIDTH 11 0
BBX 5 8 4 0
BITMAP
60
90
90
70
20
F8
20
20
ENDCHAR
STARTCHAR 2642
ENCODING 9794
SWIDTH 720 0
DWIDTH 11 0
BBX 6 6 2 2
BITMAP
0C
0C
70
90
90
60
ENDCHAR
STARTCHAR 2660
ENCODING 9824
SWIDTH 523 0
DWIDTH 8 0
BBX 7 9 0 0
BITMAP
10
10
38
7C
FE
FE
FE
10
38
ENDCHAR
STARTCHAR 2663
ENCODING 9827
SWIDTH 654 0
DWIDTH 10 0
BBX 9 9 0 0
BITMAP
1C00
1C00
1C00
7F00
FF80
FF80
6B00
0800
3E00
ENDCHAR
STARTCHAR 2665
ENCODING 9829
SWIDTH 589 0
DWIDTH 9 0
BBX 7 8 1 0
BITMAP
EE
EE
FE
7C
7C
38
10
10
ENDCHAR
STARTCHAR 2666
ENCODING 9830
SWIDTH 523 0
DWIDTH 8 0
BBX 7 9 0 -1
BITMAP
10
10
38
7C
FE
7C
38
38
10
ENDCHAR
STARTCHAR 266A
ENCODING 9834
SWIDTH 523 0
DWIDTH 8 0
BBX 5 8 2 0
BITMAP
20
30
38
28
28
20
E0
C0
ENDCHAR
STARTCHAR 266B
ENCODING 9835
SWIDTH 720 0
DWIDTH 11 0
BBX 8 8 2 0
BITMAP
03
3D
27
39
21
21
E7
C6
ENDCHAR
STARTCHAR F001
ENCODING 61441
SWIDTH 523 0
DWIDTH 8 0
BBX 7 13 0 -3
BITMAP
1E
32
30
7E
36
66
66
6C
6C
6E
C0
C0
C0
ENDCHAR
STARTCHAR F002
ENCODING 61442
SWIDTH 523 0
DWIDTH 8 0
BBX 8 13 0 -3
BITMAP
1F
33
36
7E
36
66
66
6C
6C
6E
C0
C0
C0
ENDCHAR
STARTCHAR F005
ENCODING 61445
SWIDTH 327 0
DWIDTH 5 0
BBX 2 3 0 -4
BITMAP
40
40
80
ENDCHAR
STARTCHAR FB01
ENCODING 64257
SWIDTH 523 0
DWIDTH 8 0
BBX 7 13 0 -3
BITMAP
1E
32
30
7E
36
66
66
6C
6C
6E
C0
C0
C0
ENDCHAR
STARTCHAR FB02
ENCODING 64258
SWIDTH 523 0
DWIDTH 8 0
BBX 8 13 0 -3
BITMAP
1F
33
36
7E
36
66
66
6C
6C
6E
C0
C0
C0
ENDCHAR
ENDFONT
